<?xml version="1.0" encoding="UTF-8"?>
<svg width="400" height="225" xmlns="http://www.w3.org/2000/svg" xmlns:svg="http://www.w3.org/2000/svg">

 <g>
  <title>Layer 1</title>
  <g id="svgg">
   <path fill-rule="evenodd" fill="#ffffff" d="m0,112.5l0,112.5l200,0l200,0l0,-112.5l0,-112.5l-200,0l-200,0l0,112.5m228.998001,-35.218002c0.000992,0.384003 0.069,0.739006 0.149994,0.790001c0.081009,0.050003 0.202011,1.068001 0.269012,2.261002c0.065994,1.194 0.179993,2.207001 0.251999,2.251999c0.071991,0.043999 0.184998,0.961998 0.250992,2.040001c0.065002,1.077003 0.177002,2.032997 0.249008,2.125c0.070999,0.092003 0.18399,1.124001 0.250992,2.293999c0.065994,1.170998 0.178009,2.164001 0.248001,2.207001c0.070999,0.043999 0.182007,0.999001 0.249008,2.122002c0.065994,1.124001 0.177994,2.118996 0.25,2.209999c0.070999,0.092003 0.18399,1.105003 0.25,2.25c0.065994,1.145996 0.181992,2.161003 0.257996,2.254997c0.076004,0.095001 0.188995,1.145004 0.251999,2.334c0.102005,1.926003 0.154999,2.207001 0.492996,2.578003c0.395996,0.434998 0.619003,1.435997 0.574997,2.583c-0.070999,1.850998 0.029007,5.328003 0.156998,5.487c0.081009,0.098999 0.201004,1.137001 0.268005,2.307999c0.065994,1.169998 0.179001,2.163002 0.25,2.208c0.072006,0.043999 0.184006,0.960999 0.25,2.039001c0.065002,1.077003 0.177002,2.032997 0.249008,2.125c0.070999,0.092003 0.18399,1.124001 0.250992,2.293999c0.065994,1.170998 0.179001,2.164001 0.25,2.208c0.070999,0.043999 0.184006,1.019005 0.25,2.167007c0.065994,1.146988 0.178009,2.121994 0.248001,2.164993c0.070007,0.044006 0.182007,1.056 0.249008,2.248993c0.065994,1.194 0.186996,2.212006 0.26799,2.262009c0.082001,0.050003 0.147995,0.505997 0.147995,1.013992c0,0.782013 0.05101,0.935013 0.334015,1.009003c0.988998,0.259003 -0.164001,0.605011 -1.74501,0.524002c-0.585999,-0.031006 -1.119995,0 -1.188004,0.068008c-0.066986,0.067993 -0.401001,0.122986 -0.740997,0.122986c-0.341003,0 -0.709991,0.110001 -0.819992,0.243011c-0.124008,0.149002 -0.375,0.21199 -0.646011,0.162003c-0.465988,-0.085007 -2.373993,0.082001 -5.859985,0.513c-1.146011,0.140991 -2.946014,0.329987 -4,0.419998c-1.055008,0.089996 -2.180008,0.237991 -2.5,0.328995c-0.321014,0.091003 -1.446014,0.238998 -2.5,0.328995c-1.055008,0.090012 -2.854004,0.279007 -4,0.421005c-1.146011,0.141998 -2.946014,0.330994 -4,0.421005c-1.055008,0.089996 -2.180008,0.237991 -2.5,0.328995c-0.321014,0.091003 -1.446014,0.238998 -2.5,0.328995c-1.055008,0.090012 -2.854004,0.279007 -4,0.421005c-1.146011,0.141998 -2.946014,0.330002 -4,0.419006c-1.055008,0.087997 -2.142014,0.232986 -2.417007,0.321991c-0.817993,0.264008 -4.348999,0.421005 -4.485992,0.199005c-0.144012,-0.234009 -1.872009,-0.253998 -2.014008,-0.022995c-0.057007,0.090988 -0.388,0.165985 -0.735001,0.165985c-0.434006,0 -0.766006,0.124008 -1.056,0.392014c-0.378006,0.349991 -0.643005,0.404999 -2.473999,0.511993c-1.128998,0.065994 -2.175995,0.186996 -2.326996,0.268005c-0.458008,0.244995 -4.590012,0.406998 -4.727005,0.184998c-0.143997,-0.234009 -1.539001,-0.253006 -1.681,-0.022995c-0.235001,0.37999 -3.649002,0.199997 -3.903,-0.206009c-0.376999,-0.604996 -0.830994,-5.014999 -0.533997,-5.197998c0.231995,-0.143997 0.248993,-1.371994 0.019989,-1.513c-0.090988,-0.057007 -0.165985,-0.473007 -0.165985,-0.925003c0,-0.641998 -0.074005,-0.867996 -0.334015,-1.029999c-0.259995,-0.162994 -0.332993,-0.388992 -0.332993,-1.029999c0,-0.451004 -0.108002,-1.651993 -0.238998,-2.667999c-0.352005,-2.720993 -0.927002,-7.584 -1.251999,-10.597c-0.085007,-0.778999 -0.5,-4.417 -0.923996,-8.083c-0.423004,-3.667 -0.878006,-7.68 -1.011002,-8.917c-0.133011,-1.237 -0.279007,-2.436996 -0.324005,-2.667c-0.046005,-0.229004 -0.158997,-1.204002 -0.251007,-2.166c-0.200989,-2.088997 -0.570999,-5.404999 -0.810989,-7.25c-0.266998,-2.055 -0.661011,-5.543999 -0.766998,-6.783997c-0.117004,-1.368004 -0.083008,-1.394005 2.108002,-1.637001c0.854996,-0.095001 2.528992,-0.279999 3.720993,-0.413002c1.192001,-0.132004 2.391998,-0.282997 2.667007,-0.334999c0.274994,-0.051003 1.25,-0.168999 2.165985,-0.260002c3.469009,-0.346001 10.118011,-1.107002 10.834015,-1.240997c0.274994,-0.051003 1.21199,-0.164001 2.082993,-0.25c0.871002,-0.086998 2.520996,-0.266998 3.667007,-0.402c1.145996,-0.134003 2.944992,-0.325005 4,-0.425003c1.053986,-0.098999 2.235992,-0.252998 2.626999,-0.341995c0.923996,-0.210007 2.15799,-0.207001 2.288986,0.004997c0.125,0.202003 1.417007,0.224998 1.417007,0.025002c0,-0.078003 0.919006,-0.191002 2.042007,-0.251999c1.835999,-0.100006 2.072998,-0.149002 2.350998,-0.484001c0.274994,-0.330002 0.569992,-0.395004 2.584,-0.572998c1.25,-0.110001 3.248001,-0.319 4.440002,-0.464005c1.190994,-0.144997 2.953995,-0.331001 3.915985,-0.414001c0.963013,-0.082001 2.125,-0.230995 2.584015,-0.332001c0.457993,-0.100998 1.65799,-0.256996 2.665985,-0.348c1.009003,-0.089996 2.284012,-0.227997 2.834015,-0.305c0.549988,-0.077995 2.029999,-0.131996 3.289993,-0.121994l2.289993,0.018997l0.001007,0.698997" id="path0"/>
   <path fill-rule="evenodd" fill="#d4cfb6" d="m224.667007,76.834c-0.505005,0.077003 -2.042007,0.261002 -3.417007,0.408997c-1.375,0.148003 -3.399994,0.376007 -4.5,0.507004c-5.179001,0.613998 -6.475998,0.767998 -8.389999,1.000999c-1.132004,0.137001 -2.335999,0.249001 -2.677002,0.249001c-0.341003,0 -0.764999,0.110001 -0.942993,0.245003c-0.397003,0.299995 -0.278,0.306 1.427002,0.074997c0.686996,-0.093002 2.261993,-0.281998 3.5,-0.418999c4.276993,-0.473999 6.424988,-0.720001 8.582993,-0.981003c1.192001,-0.143997 3.216995,-0.381996 4.5,-0.529999c3.925003,-0.449997 4.343002,-0.504997 4.063004,-0.530998c-0.149002,-0.014 -0.487,-0.056999 -0.75,-0.095001c-0.264008,-0.038002 -0.891998,-0.005997 -1.395996,0.07m-29.834015,3.431999c-2.622986,0.331001 -8.190994,0.986 -12.582993,1.482002c-1.283005,0.144997 -3.233002,0.369995 -4.332993,0.499001c-1.100006,0.129997 -3.013,0.351997 -4.25,0.493996c-4.852005,0.555 -6.507004,0.749001 -8.805008,1.030006l-2.386993,0.292l0.112991,0.592995c0.061996,0.327003 0.214005,1.532005 0.337997,2.677002c0.124008,1.145996 0.339005,3.096001 0.477005,4.334c0.139008,1.237 0.330002,2.961998 0.425003,3.833c0.095001,0.871002 0.250992,2.146004 0.345993,2.833c0.096008,0.688004 0.24501,1.925003 0.331009,2.75c0.177002,1.700996 0.520996,4.775002 0.904999,8.084c0.143997,1.237 0.369995,3.224998 0.501999,4.416c0.132004,1.192001 0.354996,3.141998 0.494003,4.334c0.384995,3.275002 0.745987,6.425003 1.011993,8.833c0.132004,1.192001 0.356995,3.141998 0.501007,4.332993c0.14299,1.192001 0.306,2.563004 0.360992,3.047012c0.080002,0.696991 0.403,1.478989 0.380997,0.921997c-0.009003,-0.242996 -0.832001,-7.591003 -1.246994,-11.135002c-0.139008,-1.192001 -0.363998,-3.18 -0.5,-4.417c-0.136002,-1.237 -0.362,-3.224998 -0.501999,-4.417c-0.139999,-1.191002 -0.365005,-3.140999 -0.5,-4.333c-0.134003,-1.192001 -0.359009,-3.141998 -0.5,-4.333c-0.139999,-1.192001 -0.363998,-3.141998 -0.497009,-4.334c-0.131989,-1.191002 -0.354996,-3.160004 -0.494995,-4.375c-0.667999,-5.815002 -0.770004,-6.732002 -0.917999,-8.208c-0.087006,-0.871002 -0.233002,-2.108002 -0.324005,-2.75c-0.370987,-2.609001 -0.40799,-2.363998 0.376999,-2.490997c0.709015,-0.116005 3.094009,-0.402 7.112015,-0.854004c1.237,-0.139999 3.186996,-0.359001 4.332993,-0.487999c1.145996,-0.128998 3.057999,-0.352997 4.25,-0.497002c1.192001,-0.143997 3.179001,-0.375999 4.417007,-0.514999c5.564987,-0.626999 6.538986,-0.738998 8.5,-0.977997c1.145996,-0.139999 2.982986,-0.341003 4.082993,-0.446999c1.100006,-0.105003 2.070999,-0.256004 2.158005,-0.336006c0.220001,-0.199997 -1.472,-0.142998 -3.575012,0.122002m28.667007,10.487c-0.871002,0.121002 -2.671005,0.342003 -4,0.491005c-1.328995,0.148994 -3.354004,0.380997 -4.5,0.514c-4.154999,0.486 -6.294006,0.732994 -8.582993,0.993996c-1.284012,0.146004 -3.234009,0.370003 -4.334015,0.497002c-7.355988,0.852997 -8.871994,1.028 -13,1.500999c-1.28299,0.147003 -3.232986,0.372002 -4.332993,0.500999c-1.100006,0.127998 -3.125,0.357002 -4.5,0.510002c-3.932007,0.434998 -3.686005,-0.186005 -2.834,7.155998c0.733002,6.317001 1.154007,10.014999 1.477997,13c0.139008,1.282997 0.296005,2.557999 0.348999,2.833c0.053009,0.275002 0.169006,1.211998 0.257004,2.083c0.171997,1.698997 0.485001,4.506996 0.917999,8.249992c0.550003,4.746002 0.731995,6.381012 0.925995,8.334015c0.417999,4.188995 0.089005,3.98999 5.488998,3.334991c1.054001,-0.128006 2.96701,-0.352997 4.25,-0.500992c1.284012,-0.14801 3.234009,-0.373001 4.334015,-0.501007c1.099991,-0.128006 3.049988,-0.352005 4.332993,-0.498001c1.283005,-0.147003 3.233002,-0.371994 4.332993,-0.5c1.100006,-0.128998 3.050003,-0.356003 4.334015,-0.503998c1.28299,-0.147003 3.232986,-0.371994 4.332993,-0.5c1.100006,-0.126999 3.050003,-0.350998 4.332993,-0.498001c1.284012,-0.147003 3.234009,-0.373001 4.334015,-0.501999c1.099991,-0.128006 3.049988,-0.354004 4.332993,-0.5c1.283005,-0.145996 2.886002,-0.330994 3.561996,-0.410995c1.62001,-0.19101 1.688004,-0.154007 1.688004,0.90799l0,0.875l-0.957993,0.115997c-2.183014,0.263 -6.673004,0.786011 -11.625,1.353012c-1.284012,0.146988 -3.234009,0.371002 -4.334015,0.498993c-1.099991,0.128006 -2.974991,0.346008 -4.165985,0.483002c-9.172012,1.059998 -9.384003,1.091003 -6.667007,0.983994c1.190994,-0.046997 2.203003,-0.145996 2.25,-0.219986c0.046005,-0.074005 1.020996,-0.189011 2.167007,-0.255005c1.145996,-0.065994 2.15799,-0.179001 2.25,-0.25c0.090988,-0.070999 1.047989,-0.182999 2.125,-0.249008c1.076996,-0.066986 1.957993,-0.175995 1.957993,-0.243988c0,-0.068008 0.992996,-0.177002 2.207001,-0.243011c1.212997,-0.065994 2.244003,-0.181992 2.291,-0.256989c0.046997,-0.075012 1.022995,-0.19101 2.169006,-0.257004c1.145996,-0.065994 2.15799,-0.179001 2.25,-0.25c0.090988,-0.070999 1.047989,-0.182999 2.125,-0.249008c1.076996,-0.066986 1.957993,-0.175995 1.957993,-0.243988c0,-0.068008 0.992996,-0.177002 2.207001,-0.243011c2.462006,-0.133987 2.470993,-0.138992 2.251999,-1.228989c-0.085999,-0.430008 -0.190002,-0.960007 -0.233002,-1.177002c-0.082001,-0.428009 -1.056,-0.432999 -3.80899,-0.018997c-0.550003,0.082993 -1.713013,0.22699 -2.584015,0.319992c-0.869995,0.093002 -2.557999,0.281998 -3.75,0.419006c-1.190994,0.136993 -3.215988,0.36499 -4.5,0.505997c-1.28299,0.139999 -2.557999,0.293991 -2.832993,0.341003c-0.274994,0.046997 -1.175003,0.156998 -2,0.244995c-0.824997,0.087006 -2.513,0.276001 -3.75,0.419006c-1.238007,0.14299 -3.225006,0.366989 -4.417007,0.498001c-1.190994,0.130997 -2.428986,0.278992 -2.75,0.329987c-0.320999,0.050003 -1.257996,0.16301 -2.082993,0.251007c-0.824997,0.089005 -2.513,0.278 -3.75,0.421005c-1.238007,0.14299 -3.186996,0.363998 -4.332993,0.491989c-2.484009,0.276001 -4.554001,0.52301 -6.553009,0.783005c-2.015991,0.261993 -1.983002,0.304993 -2.349991,-3.111008c-0.158005,-1.465988 -0.35701,-3.190994 -0.443008,-3.832993c-0.085999,-0.641998 -0.229996,-1.841995 -0.319992,-2.667007c-0.090012,-0.824997 -0.272003,-2.436996 -0.405014,-3.582993c-0.247986,-2.144997 -0.552994,-4.845001 -1.007996,-8.917c-0.143997,-1.282997 -0.298996,-2.557999 -0.345001,-2.833c-0.04599,-0.275002 -0.154999,-1.175003 -0.242996,-2c-0.087006,-0.824997 -0.270004,-2.474998 -0.404999,-3.667c-0.136002,-1.191002 -0.360001,-3.179001 -0.498001,-4.416c-0.272003,-2.442001 -0.477005,-4.195 -0.781998,-6.684998c-0.320007,-2.618004 -0.442001,-2.528 4.01799,-2.983002c0.871002,-0.087997 2.559006,-0.273003 3.75,-0.410004c1.192001,-0.136993 3.179001,-0.364998 4.417007,-0.506996c1.237,-0.141998 3.225006,-0.371002 4.417007,-0.509003c3.163986,-0.367996 6.040985,-0.699997 8.5,-0.981995c1.190994,-0.137001 3.178986,-0.366005 4.415985,-0.509003c4.872009,-0.564003 6.504013,-0.752998 8.667007,-1c1.237,-0.141998 3.149994,-0.362999 4.25,-0.490997c5.130005,-0.598007 6.998993,-0.773003 7.339996,-0.688004c0.403,0.101997 0.548004,0.788002 0.921005,4.347c0.197998,1.884003 0.507996,4.609001 0.899994,7.917c0.147003,1.237 0.381012,3.262001 0.521011,4.5c0.25499,2.260002 0.482986,4.260002 0.980988,8.583c0.14801,1.282997 0.375,3.271004 0.505005,4.417c0.130005,1.146004 0.354004,3.096001 0.499008,4.333c0.143997,1.237 0.367996,3.188004 0.496994,4.332993c0.321991,2.858002 0.716995,6.239014 0.852997,7.292007l0.113007,0.875l-0.565002,0.022995c-0.421005,0.016998 -0.464996,0.041 -0.173004,0.097c0.662003,0.126007 1.238007,-0.091995 1.109009,-0.418991c-0.061005,-0.156006 -0.215012,-1.259003 -0.341003,-2.451004c-0.126007,-1.192001 -0.348007,-3.179001 -0.494003,-4.417007c-0.145004,-1.237 -0.369995,-3.186989 -0.498993,-4.332993c-0.662003,-5.870003 -1.017014,-8.960999 -1.51001,-13.167c-0.134003,-1.144997 -0.354996,-3.057999 -0.48999,-4.25c-0.136002,-1.191002 -0.359009,-3.140999 -0.496002,-4.333c-0.138,-1.192001 -0.322998,-2.917 -0.41301,-3.833c-0.089996,-0.917 -0.237991,-2.153999 -0.330994,-2.75c-0.091995,-0.596001 -0.253998,-1.871002 -0.359009,-2.834c-0.372986,-3.392998 -0.442993,-3.832001 -0.649994,-4.081001c-0.259995,-0.313995 -1.897003,-0.312996 -4.167999,0.000999m0.082993,1.761002c-0.549988,0.074997 -2.049988,0.255997 -3.332993,0.402c-5.264008,0.599998 -6.595001,0.752998 -8.582993,0.987c-4.078003,0.480003 -6.613007,0.773003 -8.75,1.012001c-1.192001,0.132996 -3.180008,0.361 -4.417007,0.505997c-5.203003,0.611 -6.526001,0.764 -8.582993,0.994003c-1.192001,0.134003 -3.142014,0.358002 -4.334015,0.499001c-1.190994,0.139999 -3.206985,0.368996 -4.478989,0.506996c-2.337006,0.254005 -2.675003,0.330002 -2.529007,0.566002c0.044998,0.071999 0.201004,1.248001 0.347,2.612999c0.290009,2.702003 0.576996,5.236 0.986008,8.733002c0.144989,1.237999 0.373001,3.224998 0.50499,4.417c0.133011,1.192001 0.360001,3.179001 0.504013,4.417c0.143997,1.237 0.367996,3.186996 0.496994,4.333c0.248993,2.209 0.621994,5.456001 1.003998,8.75c0.128006,1.100006 0.348999,3.011993 0.490997,4.25c0.141998,1.237 0.306,2.613007 0.365005,3.057007l0.106003,0.806992l0.684998,-0.091995c0.376999,-0.050003 1.209991,-0.136002 1.852005,-0.190002c0.640991,-0.054001 1.653992,-0.171005 2.25,-0.261002c0.594986,-0.089005 1.79599,-0.237 2.665985,-0.326996c0.871002,-0.091003 2.521011,-0.27301 3.667007,-0.404999c1.145996,-0.132004 3.154007,-0.355011 4.462997,-0.496002c1.309006,-0.139999 2.546005,-0.294006 2.75,-0.341003c0.20401,-0.046997 1.119995,-0.162003 2.037003,-0.253998c0.917007,-0.093002 2.604004,-0.277008 3.75,-0.408997c1.145996,-0.132004 3.095993,-0.354004 4.332993,-0.493011c1.238007,-0.139999 3.263,-0.373993 4.5,-0.519989c5.20401,-0.613998 9.832001,-1.139008 12.5,-1.419006c1.054001,-0.110992 1.985001,-0.263 2.068008,-0.337997c0.134995,-0.123001 -0.065002,-2.320007 -0.568008,-6.236c-0.082993,-0.640999 -0.188995,-1.541 -0.237,-2c-0.098999,-0.946999 -0.51799,-4.510002 -0.764999,-6.5c-0.090988,-0.733002 -0.237,-2.045998 -0.324997,-2.916c-0.087997,-0.871002 -0.313995,-2.895996 -0.502991,-4.5c-0.188004,-1.603996 -0.417007,-3.629997 -0.508011,-4.5c-0.090988,-0.871002 -0.202988,-1.808998 -0.25,-2.084c-0.046997,-0.275002 -0.15799,-1.175003 -0.246994,-2c-0.162994,-1.521004 -0.440994,-4.009003 -0.904999,-8.083c-0.141006,-1.237 -0.257004,-2.344002 -0.257996,-2.458c-0.002014,-0.237999 -1.134003,-0.249001 -2.752014,-0.028m2.466003,0.944c0.044998,0.435997 0.203003,1.842003 0.350998,3.125c0.14801,1.283997 0.378006,3.270996 0.51001,4.417c0.132004,1.146004 0.349991,3.096001 0.483002,4.334c0.133987,1.237999 0.289001,2.513 0.343994,2.834c0.056,0.32 0.177994,1.332001 0.272003,2.249001c0.095001,0.916 0.274994,2.566002 0.401001,3.666c0.369995,3.213997 0.75,6.505997 1.019989,8.834c0.871002,7.487999 1.152008,10.390007 1.019012,10.523003c-0.136002,0.136002 -1.346008,0.313995 -3.781998,0.55899c-0.963013,0.096008 -2.313004,0.247009 -3,0.335007c-0.688004,0.087006 -2.225006,0.272003 -3.417007,0.410004c-1.192001,0.138 -3.104004,0.360992 -4.25,0.496002c-1.145996,0.133987 -2.533005,0.286987 -3.082993,0.340988c-0.550003,0.054001 -1.525009,0.166 -2.167007,0.249008c-0.641998,0.084 -2.253998,0.272995 -3.582993,0.421997c-1.32901,0.149002 -3.280014,0.375 -4.334015,0.503006c-1.053986,0.127991 -2.365997,0.274994 -2.915985,0.327988c-0.550003,0.053009 -1.525009,0.164001 -2.167007,0.247009c-0.641998,0.084 -2.253998,0.272995 -3.582993,0.421997c-1.32901,0.147995 -3.242004,0.371994 -4.25,0.498001c-1.009003,0.126007 -2.359009,0.274994 -3,0.332001c-0.642014,0.056 -1.606003,0.177994 -2.143005,0.270996c-1.219009,0.210007 -1.106995,0.391998 -1.375,-2.220001c-0.125,-1.218994 -0.344009,-3.228989 -0.487,-4.465988c-0.425003,-3.67601 -0.738007,-6.483009 -0.910004,-8.167007c-0.089005,-0.871002 -0.205994,-1.807999 -0.259003,-2.083c-0.052994,-0.275002 -0.209991,-1.550003 -0.348999,-2.834c-0.139999,-1.282997 -0.356995,-3.233002 -0.483994,-4.333c-0.126999,-1.099998 -0.343002,-2.974998 -0.480011,-4.167c-0.228989,-2.000999 -0.352997,-3.084 -1.013992,-8.916c-0.130005,-1.145996 -0.285004,-2.424004 -0.343994,-2.838997l-0.10701,-0.756004l2.559006,-0.295998c1.408005,-0.163002 3.421997,-0.400002 4.475998,-0.527c1.824005,-0.219002 3.593994,-0.424004 8.667007,-1.003998c2.43399,-0.278999 5.373993,-0.618004 8.665985,-1.002007c1.146011,-0.132996 3.096008,-0.355995 4.334015,-0.494995c2.209991,-0.248001 4.619995,-0.528 8.582993,-0.998001c1.100006,-0.129997 3.125,-0.358002 4.5,-0.505997c1.375,-0.148003 2.875,-0.330002 3.332993,-0.404007c1.813004,-0.290993 1.875,-0.271996 1.966003,0.618004m6.397003,12.669998c0.121002,1.354004 0.229996,1.872002 0.395004,1.872002c0.21199,0 0.205002,-0.952003 -0.008011,-1.083c-0.090988,-0.056999 -0.165985,-0.393997 -0.165985,-0.75c0,-0.356003 -0.06601,-0.688004 -0.146011,-0.737c-0.080002,-0.050003 -0.113998,0.264 -0.074997,0.697998m-17.738007,0.82c0.161011,0.042 0.423004,0.042 0.584015,0c0.159988,-0.042 0.028992,-0.075996 -0.292007,-0.075996c-0.320999,0 -0.451996,0.033997 -0.292007,0.075996m19.292007,30.384995c-0.175003,0.113007 0.091003,0.16301 0.884995,0.164001c0.715012,0.001999 1.097,-0.05899 1.032013,-0.164001c-0.132004,-0.212997 -1.587006,-0.212997 -1.917007,0m-65.080994,2.542007c0.266998,2.403 0.478989,3.723999 0.623001,3.875c0.10199,0.106995 0.125992,-0.074005 0.066986,-0.5c-0.050995,-0.367004 -0.135986,-1.192001 -0.188995,-1.832993c-0.145996,-1.759003 -0.265991,-2.417007 -0.440002,-2.417007c-0.091995,0 -0.116989,0.367004 -0.060989,0.875m30.066986,1.451004c-0.235992,0.070999 -1.17099,0.185989 -2.075989,0.253998c-2.068008,0.154999 -2.777008,0.395004 -1.212006,0.408997c0.613998,0.005997 1.156998,-0.056 1.207001,-0.136993c0.050995,-0.082001 0.992996,-0.202011 2.093002,-0.269012c1.100998,-0.065994 2.001999,-0.186996 2.001999,-0.26799c0,-0.179001 -1.412003,-0.171997 -2.014008,0.011002m-6.653,0.780991c-3.552994,0.400009 -4.18399,0.547012 -1.915985,0.447006c1.099991,-0.048996 2.024994,-0.156006 2.054993,-0.238007c0.031006,-0.082001 0.5,-0.148987 1.042007,-0.148987c0.54599,0 0.985992,-0.075012 0.985992,-0.167007c0,-0.091995 -0.018997,-0.158005 -0.042007,-0.147003c-0.022995,0.011002 -0.978989,0.125 -2.125,0.253998m-9.460999,1.057007c-1.414993,0.160995 -1.502991,0.335999 -0.169998,0.335999c0.766006,0 1.152008,-0.074005 1.298004,-0.25c0.113998,-0.138 0.141998,-0.240005 0.061996,-0.227005c-0.080002,0.012009 -0.61499,0.076004 -1.190002,0.141006m-3.454987,0.436005c-3.817001,0.424988 -4.411011,0.554993 -2.084015,0.457001c1.146011,-0.048004 2.109009,-0.156006 2.139008,-0.239014c0.031006,-0.082993 0.5,-0.150986 1.042007,-0.150986c0.54599,0 0.985992,-0.075012 0.985992,-0.167007c0,-0.091995 -0.018997,-0.156998 -0.042007,-0.145004c-0.022995,0.013 -0.940994,0.123001 -2.040985,0.24501" id="path1"/>
   <path fill-rule="evenodd" fill="#e5e2d2" d="m223.375,76.947998c0.160004,0.042 0.423004,0.042 0.582993,0c0.161011,-0.042 0.029007,-0.075996 -0.290985,-0.075996c-0.321014,0 -0.452011,0.033997 -0.292007,0.075996m-4.042007,0.385002c-0.441986,0.093002 -0.481995,0.125999 -0.165985,0.135002c0.228989,0.006996 0.715988,-0.049004 1.082993,-0.125c0.556,-0.115005 0.582993,-0.138 0.167007,-0.135002c-0.275009,0.000999 -0.763,0.057999 -1.084015,0.125m-13,1.5c-0.441986,0.093002 -0.481995,0.125999 -0.165985,0.135002c0.228989,0.006996 0.715988,-0.049004 1.082993,-0.125c0.556,-0.115005 0.582993,-0.138 0.167007,-0.135002c-0.275009,0.000999 -0.763,0.057999 -1.084015,0.125m-8.790985,1.114998c0.159988,0.042 0.422989,0.042 0.582993,0c0.160004,-0.042 0.029007,-0.075996 -0.292007,-0.075996c-0.320999,0 -0.451996,0.033997 -0.290985,0.075996m-4.209015,0.385002c-0.441986,0.093002 -0.481995,0.125999 -0.165985,0.135002c0.228989,0.006996 0.715988,-0.049004 1.082993,-0.125c0.556,-0.115005 0.582993,-0.138 0.167007,-0.135002c-0.275009,0.000999 -0.763,0.057999 -1.084015,0.125m-13.290985,1.614998c0.159988,0.042 0.422989,0.042 0.582993,0c0.160004,-0.042 0.029007,-0.075996 -0.292007,-0.075996c-0.320999,0 -0.451996,0.033997 -0.290985,0.075996m-13,1.5c0.159988,0.042 0.422989,0.042 0.582993,0c0.160004,-0.042 0.029007,-0.075996 -0.292007,-0.075996c-0.320999,0 -0.451996,0.033997 -0.290985,0.075996m-4.333008,3.135002c0.001999,0.366997 0.035995,0.497002 0.076004,0.290001c0.039001,-0.207001 0.037994,-0.507004 -0.003998,-0.667c-0.042007,-0.159004 -0.074005,0.011002 -0.072006,0.376999m0.5,4.5c0.001999,0.366997 0.035995,0.497002 0.076004,0.290001c0.039001,-0.207001 0.037994,-0.507004 -0.003998,-0.667c-0.042007,-0.159004 -0.074005,0.011002 -0.072006,0.376999m63.291,-0.129997c0.320999,0.035995 0.677002,0.187996 0.792007,0.337997c0.113998,0.150002 0.207993,0.197998 0.207993,0.108002c0,-0.338005 -0.417999,-0.565002 -0.992004,-0.539001l-0.590988,0.027l0.582993,0.066002m-3,0.213997l-0.75,0.115997l0.832993,0.016006c0.459015,0.007996 1.134003,-0.047005 1.5,-0.123001l0.667007,-0.138l-0.75,0.005997c-0.412003,0.002998 -1.087997,0.058998 -1.5,0.123001m-4.582993,0.521004c-0.642014,0.079994 -1.280014,0.176994 -1.417007,0.216995c-0.434006,0.124001 2.554993,-0.101997 3.167007,-0.239998l0.582993,-0.132004l-0.582993,0.005005c-0.321014,0.001999 -1.109009,0.07 -1.75,0.150002m-4.415009,0.5c-0.686996,0.078995 -1.324005,0.178993 -1.416992,0.220993c-0.240005,0.108002 2.367996,-0.092995 3.164993,-0.244995l0.667007,-0.126999l-0.584015,0.002998c-0.320999,0.001999 -1.144989,0.068001 -1.830994,0.148003m10.361008,-0.014c-0.671005,0.07 -1.271011,0.178993 -1.333008,0.242996c-0.061996,0.063004 0.337006,0.066002 0.887009,0.007004c1.900986,-0.206001 1.816986,-0.221001 1.942993,0.325996c0.113007,0.496002 0.113998,0.496002 0.085007,-0.07c-0.033005,-0.672997 -0.017014,-0.667999 -1.582001,-0.505997m2.752991,1.287994c0.052002,0.759003 0.156998,1.621002 0.233002,1.917c0.175003,0.682999 0.003998,-1.685997 -0.190002,-2.628998c-0.091995,-0.446999 -0.106003,-0.211998 -0.042999,0.711998m-17.115997,-0.794998l-0.75,0.115997l0.832993,0.016006c0.459015,0.007996 1.134003,-0.047005 1.5,-0.123001l0.667007,-0.138l-0.75,0.005997c-0.412003,0.002998 -1.087997,0.058998 -1.5,0.123001m9.848999,0.018997c-1.253006,0.146004 -1.806,0.326004 -0.917999,0.300003c0.266998,-0.008003 1.160995,-0.111 1.986008,-0.228996c1.672989,-0.240005 0.855988,-0.294006 -1.068008,-0.071007m-14.431992,0.502007c-0.642014,0.079994 -1.280014,0.176994 -1.417007,0.216995c-0.434006,0.124001 2.554993,-0.101997 3.167007,-0.239998l0.582993,-0.132004l-0.582993,0.005005c-0.321014,0.001999 -1.109009,0.07 -1.75,0.150002m10.112991,-0.015007c-0.671005,0.071007 -1.264999,0.173004 -1.319,0.228004c-0.151993,0.151001 0.718994,0.097 2.289001,-0.141998c1.552994,-0.236 0.962997,-0.288002 -0.970001,-0.086006m-14.528,0.515007c-0.686996,0.078995 -1.324005,0.178993 -1.416992,0.220993c-0.240005,0.108002 2.367996,-0.092995 3.164993,-0.244995l0.667007,-0.126999l-0.584015,0.002998c-0.320999,0.001999 -1.144989,0.068001 -1.830994,0.148003m10.361008,-0.015007c-0.671005,0.071007 -1.268005,0.177002 -1.328003,0.236c-0.119003,0.120003 1.839996,-0.046997 2.882004,-0.245995c0.894989,-0.170006 0.116989,-0.165001 -1.554001,0.009995m14.750992,1.244003c0.050995,0.733002 0.121994,1.363998 0.156006,1.402c0.117996,0.129997 0.024002,-1.734001 -0.112,-2.236c-0.084,-0.306 -0.100998,0.015999 -0.044006,0.834m-29.113998,-0.75l-0.75,0.115997l0.832993,0.016006c0.459015,0.007996 1.134003,-0.047005 1.5,-0.123001l0.667007,-0.138l-0.75,0.005997c-0.412003,0.002998 -1.087997,0.058998 -1.5,0.123001m9.848999,0.018997c-1.253006,0.146004 -1.806,0.326004 -0.917999,0.300003c0.266998,-0.008003 1.160995,-0.111 1.986008,-0.228996c1.672989,-0.240005 0.855988,-0.294006 -1.068008,-0.071007m-14.431992,0.502007c-0.642014,0.079994 -1.280014,0.176994 -1.417007,0.216995c-0.434006,0.124001 2.554993,-0.101997 3.167007,-0.239998l0.582993,-0.132004l-0.582993,0.005005c-0.321014,0.001999 -1.109009,0.07 -1.75,0.150002m10.112991,-0.015007c-0.671005,0.071007 -1.264999,0.173004 -1.319,0.228004c-0.147995,0.146996 0.688995,0.097 2.371994,-0.143997c1.631012,-0.234001 0.916,-0.290001 -1.052994,-0.084007m-14.528,0.515007c-0.686996,0.078995 -1.324005,0.178993 -1.416992,0.220993c-0.240005,0.108002 2.367996,-0.092995 3.164993,-0.244995l0.667007,-0.126999l-0.584015,0.002998c-0.320999,0.001999 -1.144989,0.068001 -1.830994,0.148003m10.361008,-0.015007c-0.671005,0.071007 -1.268005,0.177002 -1.328003,0.236c-0.119003,0.120003 1.839996,-0.046997 2.882004,-0.245995c0.894989,-0.170006 0.116989,-0.165001 -1.554001,0.009995m-14.363007,0.494003l-0.75,0.115997l0.832993,0.016006c0.459015,0.007996 1.134003,-0.047005 1.5,-0.123001l0.667007,-0.138l-0.75,0.005997c-0.412003,0.002998 -1.087997,0.058998 -1.5,0.123001m9.848999,0.018997c-1.253006,0.146004 -1.806,0.326004 -0.917999,0.300003c0.266998,-0.008003 1.160995,-0.111 1.986008,-0.228996c1.672989,-0.240005 0.855988,-0.294006 -1.068008,-0.071007m-14.431992,0.502007c-0.642014,0.079994 -1.280014,0.176994 -1.417007,0.216995c-0.434006,0.124001 2.554993,-0.101997 3.167007,-0.239998l0.582993,-0.132004l-0.582993,0.005005c-0.321014,0.001999 -1.109009,0.07 -1.75,0.150002m10.112991,-0.015007c-0.671005,0.071007 -1.264999,0.173004 -1.319,0.228004c-0.147995,0.146996 0.688995,0.097 2.371994,-0.143997c1.631012,-0.234001 0.916,-0.290001 -1.052994,-0.084007m-12.688004,0.566002c-0.108994,0.132004 -0.166992,0.487999 -0.12999,0.792l0.067993,0.552002l0.027008,-0.615997c0.016998,-0.391006 0.132996,-0.679001 0.317993,-0.787003c0.160004,-0.093002 0.207001,-0.171997 0.104004,-0.175003c-0.104004,-0.002998 -0.277008,0.103004 -0.387009,0.234001m8.434006,-0.062996c-0.626999,0.072998 -1.188995,0.181999 -1.249008,0.240997c-0.110992,0.111 1.459,-0.030998 2.806,-0.253998c1.065002,-0.176003 -0.005997,-0.167 -1.556992,0.013m41.095993,0.323997c0,0.320999 0.034012,0.452003 0.076004,0.292c0.042007,-0.161003 0.042007,-0.422997 0,-0.584c-0.041992,-0.160004 -0.076004,-0.028999 -0.076004,0.292m1.242004,0.75c0.050003,0.733002 0.152008,1.596001 0.227005,1.917c0.087997,0.375999 0.104004,0.110001 0.044998,-0.75c-0.050003,-0.734001 -0.152008,-1.596001 -0.227005,-1.917c-0.087997,-0.375999 -0.104004,-0.110001 -0.044998,0.75m-46.750992,-0.577003c-0.671005,0.071007 -1.264008,0.173004 -1.319,0.228004c-0.152008,0.151001 0.718994,0.097 2.288986,-0.141998c1.554001,-0.236 0.963013,-0.288002 -0.969986,-0.086006m-2.863007,0.471001c0,0.079002 0.188004,0.107002 0.417007,0.063004c0.228989,-0.042999 0.415985,-0.108002 0.415985,-0.142998c0,-0.035004 -0.186996,-0.064003 -0.415985,-0.064003c-0.229004,0 -0.417007,0.065002 -0.417007,0.143997m48.533997,0.689003c-0.002991,0.320999 0.054001,0.959 0.125,1.417l0.130005,0.833l0.011993,-0.75c0.007004,-0.412003 -0.048996,-1.050003 -0.125,-1.416l-0.138,-0.667l-0.003998,0.583m-49.662003,0.5c0,0.320999 0.034012,0.452003 0.076004,0.292c0.042007,-0.160004 0.042007,-0.422997 0,-0.583c-0.041992,-0.161003 -0.076004,-0.028999 -0.076004,0.291m1.244003,0.795998c0.052002,0.758003 0.154999,1.621002 0.229004,1.917c0.171005,0.681999 0.000992,-1.696999 -0.188004,-2.628998c-0.089005,-0.436996 -0.102997,-0.192001 -0.041,0.711998m-1.084,0.704002c-0.003998,0.320999 0.053009,0.920998 0.126007,1.334l0.134003,0.75l0.000992,-0.834c0,-0.458 -0.056,-1.057999 -0.125992,-1.333l-0.128006,-0.5l-0.007004,0.583m49.839996,1c0,0.320999 0.034012,0.452003 0.076004,0.292c0.042007,-0.160004 0.042007,-0.422997 0,-0.583c-0.041992,-0.161003 -0.076004,-0.028999 -0.076004,0.291m1.244003,0.795998c0.052002,0.758003 0.156998,1.621002 0.233002,1.917c0.175003,0.681999 0.003998,-1.685997 -0.190002,-2.628998c-0.091995,-0.446999 -0.106003,-0.211998 -0.042999,0.711998m-1.082001,0.621002c-0.001999,0.275002 0.054001,0.875 0.125,1.333l0.130005,0.834l0.001999,-0.834c0.001999,-0.458 -0.054001,-1.057999 -0.123993,-1.333l-0.128006,-0.5l-0.005005,0.5m-49.658997,0.333c0.001999,0.366997 0.035995,0.497002 0.076004,0.290001c0.039993,-0.207001 0.039001,-0.507004 -0.003006,-0.667c-0.041992,-0.159004 -0.074005,0.011002 -0.072998,0.376999m1.240997,0.878998c0.052002,0.759003 0.154999,1.621002 0.229004,1.917c0.171005,0.681999 0.000992,-1.695999 -0.188004,-2.628998c-0.089005,-0.436996 -0.102997,-0.192001 -0.041,0.711998m-14.410995,0.038002c0,0.320999 0.035004,0.452003 0.076996,0.292c0.041,-0.161003 0.041,-0.422997 0,-0.584c-0.041992,-0.160004 -0.076996,-0.028999 -0.076996,0.292m13.326996,0.667c-0.003998,0.32 0.053009,0.919998 0.126007,1.333l0.134003,0.75l0.000992,-0.833c0,-0.459 -0.056,-1.058998 -0.125992,-1.334l-0.128006,-0.5l-0.007004,0.584m49.843002,0.916c0.001999,0.366997 0.035995,0.497002 0.076004,0.290001c0.039993,-0.207001 0.039001,-0.507004 -0.003006,-0.667c-0.041992,-0.159004 -0.074005,0.011002 -0.072998,0.376999m4.487,-0.333c0.153,0.182999 0.309998,0.596001 0.348007,0.917l0.069992,0.583l0.027008,-0.598999c0.018997,-0.438004 -0.075012,-0.684998 -0.349014,-0.917c-0.371994,-0.315002 -0.371994,-0.315002 -0.095993,0.015999m-3.246994,1.167c0.049988,0.733002 0.151993,1.596001 0.227997,1.916c0.175003,0.740997 0.005997,-1.628998 -0.184006,-2.583c-0.087997,-0.442001 -0.102997,-0.217003 -0.043991,0.667m-1.083008,0.75c-0.003998,0.32 0.053009,0.919998 0.126007,1.333l0.134003,0.75l0.000992,-0.833c0,-0.459 -0.056,-1.058998 -0.125992,-1.334l-0.128006,-0.5l-0.007004,0.584m-49.660004,0.333c0,0.320999 0.034012,0.452003 0.076004,0.292c0.042007,-0.161003 0.042007,-0.422997 0,-0.584c-0.041992,-0.160004 -0.076004,-0.028999 -0.076004,0.292m1.242004,0.917c0.050003,0.733002 0.153,1.596001 0.229004,1.916c0.089005,0.375 0.104004,0.091003 0.042999,-0.794998c-0.053009,-0.759003 -0.156006,-1.621002 -0.229996,-1.917c-0.081009,-0.328003 -0.097,-0.017006 -0.042007,0.795998m-1.082001,0.666c-0.003998,0.275002 0.053009,0.837997 0.126007,1.25l0.134003,0.75l0.000992,-0.75c0,-0.412003 -0.056,-0.974998 -0.125992,-1.25l-0.128006,-0.5l-0.007004,0.5m49.839996,0.917c0,0.320999 0.034012,0.452003 0.076004,0.292c0.042007,-0.161003 0.042007,-0.422997 0,-0.584c-0.041992,-0.160004 -0.076004,-0.028999 -0.076004,0.292m1.251007,1c0.052994,0.778999 0.156998,1.603996 0.229996,1.833c0.166,0.519997 -0.00499,-1.861 -0.192001,-2.666c-0.082993,-0.359001 -0.097992,-0.039001 -0.037994,0.833m-1.093994,0.583c-0.002014,0.275002 0.056,0.837997 0.128998,1.25l0.134003,0.75l0.003998,-0.833c0.001999,-0.458 -0.056,-1.021004 -0.128998,-1.25c-0.130005,-0.405998 -0.134003,-0.403999 -0.138,0.083m-49.654007,0.334c0.001999,0.365997 0.035995,0.497002 0.076004,0.289001c0.039993,-0.207001 0.039001,-0.507004 -0.003006,-0.666c-0.041992,-0.160004 -0.074005,0.010002 -0.072998,0.376999m1.240997,0.711998c0.052002,0.758003 0.154999,1.621002 0.229004,1.917c0.171005,0.681999 0.000992,-1.696999 -0.188004,-2.628998c-0.089005,-0.436996 -0.102997,-0.192001 -0.041,0.711998m-1.082001,0.704002c-0.002991,0.320999 0.054001,0.959 0.125,1.417l0.130005,0.833l0.011993,-0.75c0.007004,-0.412003 -0.048996,-1.050003 -0.125,-1.416l-0.138,-0.667l-0.003998,0.583m-13.162003,0.834c0,0.32 0.034012,0.452003 0.076004,0.291c0.042007,-0.160004 0.042007,-0.422997 0,-0.583c-0.041992,-0.160004 -0.076004,-0.028999 -0.076004,0.292m63,0.166c0,0.320999 0.034012,0.452003 0.076004,0.292c0.042007,-0.160004 0.042007,-0.422997 0,-0.583c-0.041992,-0.161003 -0.076004,-0.028999 -0.076004,0.291m1.249008,0.917c0.054001,0.824997 0.158005,1.688004 0.231003,1.917c0.159988,0.499001 -0.001007,-1.789001 -0.194,-2.75c-0.083008,-0.415001 -0.097,-0.098999 -0.037003,0.833m-1.087006,0.583c-0.002991,0.320999 0.054001,0.959 0.125,1.417l0.130005,0.833l0.011993,-0.75c0.007004,-0.412003 -0.048996,-1.050003 -0.125,-1.416l-0.138,-0.667l-0.003998,0.583m-49.662003,0.334c0,0.32 0.034012,0.452003 0.076004,0.291c0.042007,-0.160004 0.042007,-0.422997 0,-0.583c-0.041992,-0.160004 -0.076004,-0.028999 -0.076004,0.292m1.247009,0.997002c0.054001,0.778 0.158997,1.602997 0.233994,1.834c0.16301,0.500999 0.003998,-1.605003 -0.195999,-2.581001c-0.087997,-0.431999 -0.100998,-0.168999 -0.037994,0.747002m-14.410004,-0.081001c0.001999,0.366997 0.035995,0.497002 0.076004,0.290001c0.039001,-0.207001 0.037994,-0.507004 -0.003998,-0.667c-0.042007,-0.159004 -0.074005,0.011002 -0.072006,0.376999m13.322998,0.667c-0.003998,0.275002 0.053009,0.836998 0.126007,1.25l0.134003,0.75l0.000992,-0.75c0,-0.413002 -0.056,-0.974998 -0.125992,-1.25l-0.128006,-0.5l-0.007004,0.5m49.839996,0.917c0,0.32 0.034012,0.452003 0.076004,0.291c0.042007,-0.160004 0.042007,-0.422997 0,-0.583c-0.041992,-0.160004 -0.076004,-0.028999 -0.076004,0.292m1.247009,0.997002c0.054001,0.778 0.158997,1.602997 0.233994,1.834c0.16301,0.500999 0.003998,-1.605003 -0.195999,-2.581001c-0.087997,-0.431999 -0.100998,-0.168999 -0.037994,0.747002m-1.085007,0.502998c-0.001999,0.32 0.054001,0.958 0.125,1.416l0.130005,0.834l0.001999,-0.917c0.001999,-0.503998 -0.054001,-1.141998 -0.123993,-1.417l-0.128006,-0.5l-0.005005,0.584m-49.662003,0.333c0,0.320999 0.034012,0.452003 0.076004,0.292c0.042007,-0.161003 0.042007,-0.422997 0,-0.584c-0.041992,-0.160004 -0.076004,-0.028999 -0.076004,0.292m1.243011,0.917c0.049988,0.733002 0.153992,1.596001 0.230988,1.916c0.180008,0.740997 0.011002,-1.620003 -0.184998,-2.583c-0.091995,-0.452003 -0.106003,-0.236 -0.04599,0.667m-1.081009,0.666c-0.001999,0.275002 0.054001,0.875 0.125,1.334l0.130005,0.833l0.001999,-0.833c0.001999,-0.459 -0.054001,-1.058998 -0.123993,-1.334l-0.128006,-0.5l-0.005005,0.5m49.837997,0.917c0,0.320999 0.034012,0.452003 0.076004,0.292c0.042007,-0.161003 0.042007,-0.422997 0,-0.584c-0.041992,-0.160004 -0.076004,-0.028999 -0.076004,0.292m1.242004,0.917c0.050003,0.733002 0.153,1.596001 0.229004,1.916c0.089005,0.375 0.104004,0.091003 0.042999,-0.794998c-0.053009,-0.759003 -0.156006,-1.621002 -0.229996,-1.917c-0.081009,-0.328003 -0.097,-0.017006 -0.042007,0.795998m-1.080002,0.666c-0.001999,0.275002 0.054001,0.875 0.125,1.334l0.130005,0.833l0.001999,-0.833c0.001999,-0.459 -0.054001,-1.058998 -0.123993,-1.334l-0.128006,-0.5l-0.005005,0.5m-49.662003,0.417c0,0.320999 0.034012,0.452003 0.076004,0.292c0.042007,-0.161003 0.042007,-0.422997 0,-0.584c-0.041992,-0.160004 -0.076004,-0.028999 -0.076004,0.292m1.244003,0.795998c0.052002,0.758003 0.154999,1.621002 0.229004,1.916c0.171005,0.683006 0.000992,-1.695999 -0.188004,-2.628998c-0.089005,-0.436996 -0.102997,-0.191002 -0.041,0.712997m-14.406998,-0.045998c0.001999,0.366997 0.035995,0.497002 0.076004,0.290001c0.039001,-0.208 0.037994,-0.508003 -0.003998,-0.667c-0.042007,-0.159004 -0.074005,0.010002 -0.072006,0.376999m13.326004,0.583c-0.003006,0.320999 0.052994,0.959 0.123993,1.417c0.126007,0.811996 0.130005,0.815994 0.139999,0.167c0.005005,-0.366997 -0.050003,-1.004997 -0.123993,-1.417c-0.123001,-0.691002 -0.134003,-0.704002 -0.139999,-0.167m49.839996,1.084c0.001999,0.365997 0.035995,0.497002 0.076004,0.289001c0.039993,-0.207001 0.039001,-0.507004 -0.003006,-0.666c-0.041992,-0.160004 -0.074005,0.010002 -0.072998,0.376999m1.238998,0.750008c0.048996,0.778992 0.152008,1.678986 0.227997,2c0.169006,0.709991 0.012009,-1.542007 -0.185989,-2.667007c-0.089005,-0.505997 -0.103012,-0.289001 -0.042007,0.667007m-1.080002,0.665985c-0.002991,0.321014 0.054001,0.959015 0.125,1.417007l0.130005,0.832993l0.011993,-0.75c0.007004,-0.411987 -0.048996,-1.049988 -0.125,-1.415985l-0.138,-0.667007l-0.003998,0.582993m-49.662003,0.5c0,0.321014 0.034012,0.452011 0.076004,0.292007c0.042007,-0.160004 0.042007,-0.423004 0,-0.582993c-0.041992,-0.161011 -0.076004,-0.030014 -0.076004,0.290985m1.244003,0.796005c0.052002,0.757996 0.156998,1.621002 0.233002,1.917007c0.175003,0.681992 0.003998,-1.686005 -0.190002,-2.628998c-0.091995,-0.447006 -0.106003,-0.212006 -0.042999,0.71199m-1.082001,0.621002c-0.001999,0.274994 0.054001,0.875 0.125,1.332993l0.130005,0.834015l0.001999,-0.834015c0.001999,-0.457993 -0.054001,-1.057999 -0.123993,-1.332993l-0.128006,-0.5l-0.005005,0.5m49.841003,1c0.001999,0.367004 0.035995,0.496994 0.076004,0.289993c0.039993,-0.207993 0.039001,-0.507996 -0.003006,-0.666992c-0.041992,-0.158997 -0.074005,0.009995 -0.072998,0.376999m1.237,0.832993c0.052002,0.734009 0.149994,1.438004 0.218994,1.565002c0.145004,0.268005 0.025009,-1.25499 -0.175995,-2.230988c-0.091995,-0.451004 -0.106003,-0.235001 -0.042999,0.665985m-1.069992,0.834015c0.001999,0.365997 0.035995,0.496994 0.075989,0.288986c0.040009,-0.207001 0.03801,-0.506989 -0.002991,-0.666c-0.042007,-0.159988 -0.075012,0.01001 -0.072998,0.377014m-49.667007,0.165985c0.001999,0.367004 0.035995,0.497009 0.076004,0.290009c0.039993,-0.207001 0.039001,-0.507004 -0.003006,-0.667007c-0.041992,-0.158997 -0.074005,0.011002 -0.072998,0.376999m1.240005,0.834015c0.049988,0.732986 0.151993,1.594986 0.227997,1.915985c0.175003,0.741013 0.005997,-1.628998 -0.184006,-2.582993c-0.087997,-0.442001 -0.102997,-0.216995 -0.043991,0.667007m-14.423004,0.015991c-0.016998,0.350006 0.095001,0.617004 0.350006,0.833008c0.371994,0.314987 0.371994,0.314987 0.097,-0.016006c-0.153015,-0.182999 -0.310013,-0.557999 -0.350006,-0.832993l-0.072006,-0.5l-0.024994,0.515991m60.225006,-0.244995c-0.642014,0.080002 -1.280014,0.177994 -1.417007,0.218002c-0.395996,0.115997 2.343994,-0.098007 3.082993,-0.241013l0.667007,-0.127991l-0.582993,0.001999c-0.321014,0.001999 -1.109009,0.069 -1.75,0.149002m-4.5,0.501999c-0.642014,0.080994 -1.242004,0.181 -1.334015,0.220993c-0.241989,0.10701 2.382004,-0.097992 3.167007,-0.246994l0.667007,-0.126999l-0.667007,0.001999c-0.367004,0.001999 -1.192001,0.069992 -1.832993,0.151001m-42.38501,0.477005c-0.003998,0.319992 0.053009,0.919998 0.126007,1.332993l0.134003,0.75l0.000992,-0.832993c0,-0.459015 -0.056,-1.059006 -0.125992,-1.334015l-0.128006,-0.5l-0.007004,0.584015m38.468002,0l-0.75,0.115997l0.917007,0.009003c0.503998,0.003998 1.103989,-0.052002 1.332993,-0.125c0.546997,-0.175003 -0.373993,-0.175003 -1.5,0m9.863007,0.005997c-0.671005,0.070999 -1.271011,0.179001 -1.333008,0.241989c-0.061996,0.062012 0.449005,0.057007 1.137009,-0.010986c0.686996,-0.068008 1.339996,-0.125 1.450989,-0.125c0.110001,-0.001007 0.162003,-0.064011 0.115005,-0.139999c-0.046997,-0.076004 -0.100006,-0.129013 -0.117996,-0.116013c-0.016998,0.012009 -0.581009,0.080002 -1.251999,0.150009m-11.488007,0.274994c0.160004,0.042007 0.423004,0.042007 0.582993,0c0.161011,-0.041992 0.029007,-0.076004 -0.290985,-0.076004c-0.321014,0 -0.452011,0.034012 -0.292007,0.076004m-2.957993,0.240005c-0.642014,0.080002 -1.280014,0.177994 -1.417007,0.218002c-0.395996,0.115997 2.343994,-0.098007 3.082993,-0.241013l0.667007,-0.127991l-0.582993,0.001999c-0.321014,0.001999 -1.109009,0.069 -1.75,0.149002m11.542999,-0.070007c0.207993,0.040009 0.507996,0.03801 0.666992,-0.002991c0.158997,-0.042007 -0.009995,-0.075012 -0.376999,-0.072998c-0.367004,0.001999 -0.496994,0.035995 -0.289993,0.075989m4.414993,0.464996c0.001999,0.367004 0.035995,0.497009 0.076004,0.290009c0.039993,-0.207001 0.039001,-0.507004 -0.003006,-0.667007c-0.041992,-0.158997 -0.074005,0.011002 -0.072998,0.376999m-6.875,-0.240997c-0.263,0.090012 0.013,0.10701 0.75,0.046005c0.641998,-0.052002 1.197998,-0.123993 1.235992,-0.158997c0.137009,-0.124008 -1.577988,-0.026001 -1.985992,0.112991m8.039001,0.240997c0,0.275009 0.057999,0.725006 0.128006,1c0.175995,0.693008 0.18399,0.011002 0.008987,-0.832993c-0.115997,-0.561005 -0.138,-0.587006 -0.136993,-0.167007m-21.621994,0.10701c-0.642014,0.080994 -1.242004,0.181 -1.334015,0.220993c-0.241989,0.10701 2.382004,-0.097992 3.167007,-0.246994l0.667007,-0.126999l-0.667007,0.001999c-0.367004,0.001999 -1.192001,0.069992 -1.832993,0.151001m10.294998,-0.029999c-0.66301,0.060989 -1.263,0.169998 -1.334,0.241989c-0.129013,0.131012 1.556,-0.003998 2.954987,-0.237991c0.985001,-0.164001 0.140015,-0.166 -1.620987,-0.003998m-14.212006,0.507004l-0.75,0.115997l0.917007,0.009003c0.503998,0.003998 1.103989,-0.052002 1.332993,-0.125c0.546997,-0.175003 -0.373993,-0.175003 -1.5,0m9.863007,0.005997c-0.671005,0.070999 -1.271011,0.179993 -1.333008,0.244003c-0.117004,0.118988 1.637009,-0.030014 2.970001,-0.253006c1.039001,-0.173004 0.050995,-0.167999 -1.636993,0.009003m-11.488007,0.274994c0.160004,0.042007 0.423004,0.042007 0.582993,0c0.161011,-0.041992 0.029007,-0.076004 -0.290985,-0.076004c-0.321014,0 -0.452011,0.034012 -0.292007,0.076004m-2.957993,0.240005c-0.642014,0.080002 -1.280014,0.177994 -1.417007,0.218002c-0.395996,0.115997 2.343994,-0.098007 3.082993,-0.241013l0.667007,-0.127991l-0.582993,0.001999c-0.321014,0.001999 -1.109009,0.069 -1.75,0.149002m11.542999,-0.070007c0.207993,0.040009 0.507996,0.03801 0.666992,-0.002991c0.158997,-0.042007 -0.009995,-0.075012 -0.376999,-0.072998c-0.367004,0.001999 -0.496994,0.035995 -0.289993,0.075989m-2.460007,0.223999c-0.263,0.090012 0.013,0.10701 0.75,0.046005c0.641998,-0.052002 1.197998,-0.123993 1.235992,-0.158997c0.137009,-0.124008 -1.577988,-0.026001 -1.985992,0.112991m-42.455002,0.658005c0,0.412003 0.033005,0.580994 0.072998,0.375c0.039001,-0.205994 0.039001,-0.544006 0,-0.75c-0.039993,-0.205994 -0.072998,-0.037994 -0.072998,0.375m12.826996,0c0,0.320999 0.034012,0.451996 0.076004,0.292007c0.042007,-0.161011 0.042007,-0.423004 0,-0.584015c-0.041992,-0.159988 -0.076004,-0.028992 -0.076004,0.292007m16.045013,-0.309998c-0.642014,0.080994 -1.242004,0.181 -1.334015,0.220993c-0.241989,0.10701 2.382004,-0.097992 3.167007,-0.246994l0.667007,-0.126999l-0.667007,0.001999c-0.367004,0.001999 -1.192001,0.069992 -1.832993,0.151001m10.294998,-0.029999c-0.66301,0.060989 -1.263,0.169998 -1.334,0.241989c-0.129013,0.131012 1.556,-0.003998 2.954987,-0.237991c0.985001,-0.164001 0.140015,-0.166 -1.620987,-0.003998m-25.188004,0.257004c-0.011002,0.182999 0.026993,0.619995 0.084991,0.970993l0.105011,0.638l1.434998,-0.115997c0.789001,-0.064011 1.733994,-0.180008 2.100998,-0.258011c0.705002,-0.150986 -0.729004,-0.079987 -2.514999,0.124008l-0.848007,0.097l-0.171997,-0.895004c-0.093994,-0.492004 -0.179993,-0.744995 -0.190994,-0.560989m49.18399,-0.13501c0.161011,0.041 0.423004,0.041 0.584015,0c0.159988,-0.041992 0.028992,-0.076996 -0.292007,-0.076996c-0.320999,0 -0.451996,0.035004 -0.292007,0.076996m-38.207993,0.38501l-0.75,0.115997l0.917007,0.009003c0.503998,0.003998 1.103989,-0.052002 1.332993,-0.125c0.546997,-0.175003 -0.373993,-0.175003 -1.5,0m9.863007,0.005997c-0.671005,0.070999 -1.271011,0.179993 -1.333008,0.244003c-0.117004,0.118988 1.637009,-0.030014 2.970001,-0.253006c1.039001,-0.173004 0.050995,-0.167999 -1.636993,0.009003m23.245987,0.119003c-0.042999,0.067993 0.309006,0.102997 0.782013,0.076996c1.419998,-0.080002 1.593994,-0.156006 0.410995,-0.180008c-0.613998,-0.011993 -1.151001,0.034012 -1.193008,0.103012m-34.733994,0.155991c0.160004,0.042007 0.423004,0.042007 0.582993,0c0.161011,-0.041992 0.029007,-0.076004 -0.290985,-0.076004c-0.321014,0 -0.452011,0.034012 -0.292007,0.076004m-3.039993,0.240005c-0.687012,0.078995 -1.324005,0.179001 -1.417007,0.220993c-0.240005,0.108002 2.367996,-0.093002 3.164993,-0.244995l0.667007,-0.126999l-0.582993,0.002991c-0.321014,0.002014 -1.145004,0.068008 -1.832001,0.14801m10.194992,-0.014999c-0.671005,0.070999 -1.270996,0.179993 -1.332993,0.244003c-0.117004,0.118988 1.636993,-0.030014 2.970001,-0.253006c1.038986,-0.173004 0.050995,-0.167999 -1.637009,0.009003m24.012009,0.112991c0.251999,0.03801 0.663986,0.03801 0.915985,0c0.252014,-0.037994 0.046005,-0.069 -0.457993,-0.069c-0.503998,0 -0.710007,0.031006 -0.457993,0.069m-28.330002,0.374008c-0.66301,0.060989 -1.263,0.169998 -1.334,0.241989c-0.129013,0.131012 1.556,-0.003998 2.954987,-0.237991c0.985001,-0.164001 0.140015,-0.166 -1.620987,-0.003998m24.455002,-0.036011c-0.505005,0.034012 -0.970001,0.114014 -1.034012,0.177002c-0.065002,0.064011 0.309998,0.090012 0.833008,0.059006c0.522995,-0.031006 1.022003,-0.124008 1.108994,-0.208008c0.087006,-0.084 0.125,-0.137985 0.083008,-0.120987c-0.041,0.016998 -0.487,0.05899 -0.990997,0.092987m-37.651001,0.483002c-0.030014,0.973007 0.413986,1.279999 1.570999,1.085007l0.995987,-0.167999l-1.071991,0.029999l-1.072006,0.028992l-0.203003,-0.75c-0.185989,-0.685989 -0.204987,-0.704987 -0.219986,-0.225998m8.847,0.06601c-0.671005,0.070999 -1.271011,0.179993 -1.333008,0.244003c-0.117004,0.118988 1.637009,-0.030014 2.970001,-0.253006c1.039001,-0.173004 0.050995,-0.167999 -1.636993,0.009003m23.245987,0.119003c-0.042999,0.067993 0.309006,0.102997 0.782013,0.076996c1.419998,-0.080002 1.593994,-0.156006 0.410995,-0.180008c-0.613998,-0.011993 -1.151001,0.034012 -1.193008,0.103012m-27.578995,0.380997c-0.671005,0.070999 -1.270996,0.179993 -1.332993,0.244003c-0.117004,0.118988 1.636993,-0.030014 2.970001,-0.253006c1.038986,-0.173004 0.050995,-0.167999 -1.637009,0.009003m24.012009,0.112991c0.251999,0.03801 0.663986,0.03801 0.915985,0c0.252014,-0.037994 0.046005,-0.069 -0.457993,-0.069c-0.503998,0 -0.710007,0.031006 -0.457993,0.069m-3.875,0.337997c-0.505005,0.034012 -0.970001,0.114014 -1.034012,0.177002c-0.065002,0.064011 0.309998,0.090012 0.833008,0.059006c0.522995,-0.031006 1.022003,-0.124008 1.108994,-0.208008c0.087006,-0.084 0.125,-0.137985 0.083008,-0.120987c-0.041,0.016998 -0.487,0.05899 -0.990997,0.092987m-5.558014,0.668015c-0.042999,0.067993 0.309006,0.102997 0.782013,0.076996c1.419998,-0.080002 1.593994,-0.156006 0.410995,-0.180008c-0.613998,-0.011993 -1.151001,0.034012 -1.193008,0.103012m-3.566986,0.493988c0.251999,0.03801 0.663986,0.03801 0.915985,0c0.252014,-0.037994 0.046005,-0.069 -0.457993,-0.069c-0.503998,0 -0.710007,0.031006 -0.457993,0.069m-3.875,0.337997c-0.505005,0.034012 -0.970001,0.114014 -1.034012,0.177002c-0.065002,0.064011 0.309998,0.090012 0.833008,0.059006c0.522995,-0.031006 1.022003,-0.124008 1.108994,-0.208008c0.087006,-0.084 0.125,-0.137985 0.083008,-0.120987c-0.041,0.016998 -0.487,0.05899 -0.990997,0.092987m-4.625,0.662003c0.251999,0.03801 0.663986,0.03801 0.915985,0c0.252014,-0.037994 0.046005,-0.069 -0.457993,-0.069c-0.503998,0 -0.710007,0.031006 -0.457993,0.069m-8.375,0.837997c-0.505005,0.034012 -0.970001,0.114014 -1.034012,0.177002c-0.065002,0.064011 0.309998,0.090012 0.833008,0.059006c0.522995,-0.031006 1.022003,-0.124008 1.108994,-0.208008c0.087006,-0.084 0.125,-0.137985 0.083008,-0.120987c-0.041,0.016998 -0.487,0.05899 -0.990997,0.092987m-4.875,0.66301c0.297989,0.037003 0.784988,0.037003 1.082993,0c0.298004,-0.037003 0.054001,-0.067001 -0.542007,-0.067001c-0.595993,0 -0.838989,0.029999 -0.540985,0.067001" id="path2"/>
   <path fill-rule="evenodd" fill="#f0eee4" d="m223.371994,76.664001c-0.57399,0.066002 -1.098999,0.177002 -1.166,0.248001c-0.067993,0.071999 0.327011,0.071999 0.876999,0.001999c0.550003,-0.07 1.450012,-0.181 2,-0.248001l1,-0.120003l-0.832993,0c-0.457993,0 -1.302994,0.053001 -1.878006,0.118004m4.378006,0.002998l-1.167007,0.107002l1.115005,0.029999c0.613998,0.015999 1.162003,-0.045998 1.219009,-0.137001c0.056,-0.092003 0.078995,-0.153999 0.050995,-0.138c-0.028,0.016998 -0.576004,0.078003 -1.218002,0.138m-8.878006,0.497002c-0.57399,0.066002 -1.098999,0.178001 -1.166,0.250999c-0.067993,0.071999 0.327011,0.074997 0.876999,0.005997c0.550003,-0.069 1.488007,-0.181999 2.084015,-0.25l1.082993,-0.124001l-0.917007,-0.000999c-0.503998,0 -1.385986,0.053001 -1.960999,0.118004m-2.411987,0.453995c0.207993,0.040001 0.507996,0.038002 0.666992,-0.002998c0.158997,-0.042 -0.009995,-0.074997 -0.376999,-0.072998c-0.367004,0.001999 -0.496994,0.036003 -0.289993,0.075996m-2.960007,0.215004c-0.307007,0.198997 0.503998,0.202003 1.75,0.008003l0.832993,-0.130005l-1.165985,-0.019997c-0.642014,-0.010002 -1.280014,0.053001 -1.417007,0.141998m-3.128006,0.331001c-0.57399,0.066002 -1.098999,0.178001 -1.166,0.250999c-0.067993,0.071999 0.327011,0.074997 0.876999,0.006996c0.550003,-0.068001 1.450012,-0.181 2,-0.25l1,-0.125999l-0.832993,0c-0.457993,0 -1.302994,0.053001 -1.878006,0.118004m18.766006,0.969002c0.031006,0.613998 0.106003,1.169998 0.166992,1.233994c0.061005,0.065002 0.087006,-0.384995 0.057007,-1c-0.031006,-0.613998 -0.106003,-1.169998 -0.166992,-1.233994c-0.061005,-0.065002 -0.087006,0.384995 -0.057007,1m-23.333008,-0.482002c-0.610992,0.055 -1.173996,0.166 -1.25,0.247002c-0.130997,0.139999 0.160004,0.118996 3.112015,-0.223999l1.082993,-0.127007l-0.917007,0.003006c-0.503998,0.000999 -1.416992,0.046997 -2.028,0.100998m-4.222,1.015999l-1,0.110001l0.949005,0.028c0.522003,0.015999 0.994995,-0.046997 1.050995,-0.138c0.057007,-0.092003 0.080002,-0.153999 0.052002,-0.139c-0.028,0.014999 -0.501999,0.078003 -1.052002,0.139m-5.165985,0.165001c-0.216003,0.092003 0.11499,0.130997 0.940994,0.112999c0.701004,-0.015999 1.240997,-0.084999 1.199005,-0.153c-0.103012,-0.167999 -1.722,-0.138 -2.139999,0.040001m-3.545013,0.332001c-0.57399,0.066002 -1.098999,0.178001 -1.166,0.250999c-0.067993,0.071999 0.327011,0.074997 0.876999,0.005997c0.550003,-0.069 1.488007,-0.181999 2.084015,-0.25l1.082993,-0.124001l-0.917007,-0.000999c-0.503998,0 -1.385986,0.053001 -1.960999,0.118004m-4.067001,0.487c-0.610992,0.055 -1.166992,0.154999 -1.235992,0.223999c-0.173004,0.174004 0.419998,0.142998 2.263992,-0.116997c1.619003,-0.228004 1.027008,-0.289001 -1.028,-0.107002m-4.432999,0.513c-0.57399,0.066002 -1.098999,0.178001 -1.166,0.250999c-0.067993,0.071999 0.327011,0.074997 0.876999,0.006996c0.550003,-0.068001 1.450012,-0.181 2,-0.25l1,-0.125999l-0.832993,0c-0.457993,0 -1.302994,0.053001 -1.878006,0.118004m-2.827988,0.456001c0.252991,0.037994 0.627991,0.036995 0.832993,-0.003006c0.205002,-0.038994 -0.001999,-0.070999 -0.459991,-0.069c-0.459015,0.001007 -0.626007,0.033005 -0.373001,0.072006m-2.376999,0.223c-0.177002,0.120995 0.042999,0.139 0.75,0.059998c0.549988,-0.060997 1.030991,-0.139999 1.068985,-0.174004c0.167007,-0.149994 -1.594986,-0.039993 -1.818985,0.114006m-3.362015,0.307999c-0.610992,0.055 -1.166992,0.154999 -1.235992,0.223999c-0.173004,0.174004 0.419998,0.142998 2.263992,-0.116997c1.619003,-0.228004 1.027008,-0.289001 -1.028,-0.107002m-4.432999,0.513c-0.57399,0.066002 -1.098999,0.178001 -1.166,0.250999c-0.067993,0.071999 0.327011,0.074997 0.876999,0.006996c0.550003,-0.068001 1.450012,-0.181 2,-0.25l1,-0.125999l-0.832993,0c-0.457993,0 -1.302994,0.053001 -1.878006,0.118004m58.294006,0.913002c0.048996,0.586998 0.130997,1.107994 0.181,1.157997c0.130997,0.130997 -0.028,-1.960999 -0.160004,-2.105003c-0.060989,-0.065994 -0.069992,0.360001 -0.020996,0.947006m-61.121994,-0.457001c0.252991,0.037994 0.627991,0.036995 0.832993,-0.003006c0.205002,-0.038994 -0.001999,-0.070999 -0.459991,-0.069c-0.459015,0.001007 -0.626007,0.033005 -0.373001,0.072006m-2.544006,0.212997c-0.311996,0.202003 0.227005,0.206001 1.332993,0.009003l0.75,-0.134003l-0.915985,-0.017998c-0.505005,-0.010002 -1.030014,0.054001 -1.167007,0.142998m-2.716995,0.328003c-0.786011,0.152 -0.999008,0.355995 -0.903,0.861c0.069,0.364998 0.075989,0.360001 0.097,-0.060005c0.026001,-0.511002 0.144989,-0.560997 1.855988,-0.780998c0.908005,-0.115997 0.962006,-0.139 0.334015,-0.140999c-0.41301,-0.000999 -1.035004,0.054001 -1.384003,0.121002m-0.738007,2.671997c0,0.413002 0.033005,0.582001 0.072998,0.375c0.039001,-0.206001 0.039001,-0.542999 0,-0.75c-0.039993,-0.206001 -0.072998,-0.037003 -0.072998,0.375m67.591003,1.459c0.037994,0.619003 0.119003,1.217003 0.179993,1.331001c0.061005,0.112999 0.083008,-0.336998 0.047012,-1c-0.035004,-0.664001 -0.116013,-1.262001 -0.179001,-1.331001c-0.064011,-0.068001 -0.085999,0.382004 -0.048004,1m-67.438995,-0.209c-0.006012,0.275002 0.050995,0.800003 0.126999,1.167c0.181,0.876999 0.196991,0.088997 0.01799,-0.917c-0.099991,-0.561996 -0.136002,-0.625 -0.144989,-0.25m0.350998,3.167c0.000992,0.458 0.03299,0.625999 0.071991,0.373001c0.03801,-0.253998 0.037003,-0.628998 -0.002991,-0.834c-0.039001,-0.205002 -0.070999,0.002998 -0.069,0.460999m61.869003,0.422997c-0.459015,0.074005 -1.621002,0.219002 -2.584015,0.322006c-2.609985,0.280998 -5.806992,0.637001 -6.75,0.751999c-3.449997,0.420998 -6.869995,0.818001 -10.082993,1.169998c-1.145996,0.125 -2.457993,0.274002 -2.917007,0.330002c-3.449997,0.420998 -6.869995,0.818001 -10.082993,1.169998c-1.145996,0.125 -2.457993,0.274002 -2.917007,0.330002c-4.166992,0.508995 -7.568985,0.900002 -9.953995,1.144997c-2.472992,0.254005 -2.401001,0.177002 -2.149002,2.311005c0.292007,2.459999 0.664001,5.711998 0.940002,8.213997c0.130997,1.191002 0.354004,3.140999 0.494995,4.333c0.141006,1.192001 0.371002,3.179001 0.512009,4.417c0.140991,1.237 0.363998,3.186996 0.494995,4.333c0.132004,1.146004 0.313995,2.795998 0.404999,3.667c0.091003,0.870003 0.207001,1.846001 0.258011,2.166c0.050995,0.320999 0.207001,1.596001 0.344986,2.834007c0.139008,1.237 0.361008,3.186996 0.493011,4.332993c0.131989,1.145996 0.315994,2.871002 0.40799,3.832993c0.379013,3.944 0.343002,3.886002 2.277008,3.660004c0.811005,-0.093994 2.431992,-0.280991 3.599991,-0.416c1.169006,-0.134003 3.119003,-0.360001 4.334015,-0.502991c1.213989,-0.141998 3.145996,-0.363998 4.290985,-0.494003c2.289001,-0.257996 5.309006,-0.606995 8.709015,-1.005997c1.213989,-0.141998 3.145996,-0.363998 4.290985,-0.494003c2.022003,-0.227997 3.997009,-0.456009 8.667007,-1.001999c1.237,-0.143997 3.188004,-0.367996 4.332993,-0.497009c1.146011,-0.128998 3.134003,-0.356995 4.417007,-0.506989c5.110001,-0.594009 4.75,-0.650009 4.75,0.735001c0,0.957001 0.132996,1.190994 0.679001,1.190994l0.477005,0l-0.085999,-1.375c-0.048004,-0.755997 -0.157013,-1.638 -0.243011,-1.957993c-0.084991,-0.321014 -0.235992,-1.371002 -0.332993,-2.334015c-0.098007,-0.96199 -0.291,-2.724991 -0.428009,-3.915993c-0.138,-1.192001 -0.360992,-3.141998 -0.496994,-4.334c-0.136002,-1.191002 -0.356003,-3.104004 -0.488998,-4.25c-0.307007,-2.646004 -0.680008,-5.907997 -0.986008,-8.625c-0.131989,-1.167999 -0.360992,-3.175003 -0.509995,-4.458c-0.147995,-1.282997 -0.373993,-3.233002 -0.501007,-4.333c-0.126999,-1.099998 -0.35199,-3.050003 -0.5,-4.334c-0.148987,-1.282997 -0.362,-3.195 -0.473999,-4.25c-0.270996,-2.558998 -0.259995,-2.550003 -2.691986,-2.160004m5.714996,1.033005c0.039001,0.573997 0.119003,1.097 0.177994,1.160995c0.059006,0.065002 0.082001,-0.348 0.050995,-0.916c-0.030991,-0.568993 -0.110992,-1.091995 -0.177994,-1.161995c-0.065994,-0.07 -0.089996,0.343002 -0.050995,0.917m-67.42601,-0.123001c0,0.275002 0.057007,0.724998 0.126999,1c0.177002,0.693001 0.185013,0.011002 0.01001,-0.833c-0.115997,-0.560997 -0.138,-0.586998 -0.137009,-0.167m63.238007,0.264c0.013992,0.129997 0.106003,0.874001 0.203003,1.653c0.097,0.778999 0.291992,2.429001 0.432999,3.667c0.141998,1.237 0.337006,2.925003 0.434998,3.75c0.335007,2.835999 0.647995,5.668999 0.809998,7.333c0.089996,0.917 0.238998,2.153999 0.331009,2.75c0.091995,0.596001 0.250992,1.871002 0.35199,2.833c0.102005,0.962997 0.294998,2.688004 0.429001,3.834c0.134003,1.146004 0.350998,3.057999 0.483002,4.25c0.130997,1.191002 0.354004,3.140999 0.494995,4.333c0.339005,2.867996 0.741013,6.598007 0.747009,6.940002c0.005997,0.349991 -0.307999,0.423004 -3.112,0.731995c-1.264999,0.139008 -3.313004,0.371002 -4.550003,0.514999c-1.238007,0.143005 -2.550003,0.294998 -2.917007,0.335999c-0.365997,0.041 -1.303986,0.149002 -2.082993,0.241013c-0.779007,0.091995 -2.391998,0.278 -3.582993,0.413986c-1.192001,0.136002 -3.180008,0.365005 -4.417007,0.509003c-1.238007,0.143005 -2.550003,0.294998 -2.917007,0.335999c-0.365997,0.041 -1.303986,0.149002 -2.082993,0.241013c-2.914993,0.343994 -5.798996,0.665985 -7.332993,0.818985c-0.871002,0.087006 -2.071014,0.233002 -2.667007,0.325012c-0.595993,0.090988 -1.871002,0.248993 -2.832993,0.350998c-0.963013,0.10199 -2.650009,0.289001 -3.75,0.414993c-3.971008,0.456009 -5.604004,0.612 -5.675003,0.541c-0.039001,-0.039993 -0.152008,-0.779999 -0.25,-1.643997c-0.20401,-1.791 -0.526001,-4.585007 -0.891998,-7.738007c-0.528,-4.548996 -0.790009,-6.839996 -1.513,-13.249992c-0.129013,-1.144997 -0.356003,-3.096001 -0.505005,-4.333c-0.149002,-1.237 -0.374008,-3.186996 -0.5,-4.333c-0.337997,-3.061996 -0.725998,-6.411003 -0.908005,-7.834c-0.087997,-0.686996 -0.162994,-1.597 -0.166992,-2.021004l-0.007004,-0.770996l0.875,-0.099998c0.481003,-0.055 1.886993,-0.212006 3.125,-0.349998c1.237,-0.138 3.225006,-0.367004 4.417007,-0.509003c2.155991,-0.258003 4.291992,-0.503998 8.582993,-0.987999c1.237,-0.139999 3.225006,-0.370003 4.417007,-0.511002c2.37999,-0.281998 5.130997,-0.598999 8.582993,-0.988998c1.237,-0.139999 3.225006,-0.370003 4.417007,-0.511002c2.049988,-0.243004 2.931992,-0.345001 8.75,-1.011002c1.328995,-0.152 2.865997,-0.331001 3.415985,-0.396996c1.206009,-0.146004 1.326004,-0.131004 1.361008,0.171997m-62.904999,2.486c0,0.320999 0.033997,0.452003 0.076004,0.292c0.041992,-0.160004 0.041992,-0.422997 0,-0.583c-0.042007,-0.161003 -0.076004,-0.028999 -0.076004,0.291m0.175003,1.417c0.001999,0.458 0.033997,0.625999 0.071991,0.373001c0.039001,-0.253998 0.03801,-0.628998 -0.001999,-0.834c-0.039993,-0.205002 -0.070999,0.002998 -0.069992,0.460999m67.423996,0.383003c0.031006,0.613998 0.106003,1.169998 0.166992,1.233994c0.061005,0.065002 0.087006,-0.384995 0.057007,-1c-0.031006,-0.613998 -0.106003,-1.169998 -0.166992,-1.233994c-0.061005,-0.065002 -0.087006,0.384995 -0.057007,1m-67.093002,2.699997c0,0.413002 0.033005,0.582001 0.072998,0.375c0.039001,-0.206001 0.039001,-0.542999 0,-0.75c-0.039993,-0.206001 -0.072998,-0.037003 -0.072998,0.375m67.621002,1.744003c0.048996,0.586998 0.130997,1.107994 0.181,1.157997c0.130997,0.130997 -0.028,-1.960999 -0.160004,-2.105003c-0.060989,-0.065994 -0.069992,0.360001 -0.020996,0.947006m-67.466003,-0.494003c-0.00499,0.275002 0.05101,0.837997 0.125,1.25c0.098007,0.554001 0.136002,0.619003 0.141998,0.25c0.003998,-0.275002 -0.052002,-0.836998 -0.125,-1.25c-0.098999,-0.553001 -0.136002,-0.618004 -0.141998,-0.25m0.345001,3.084c0,0.412003 0.033005,0.581001 0.072998,0.375c0.039001,-0.207001 0.039001,-0.543999 0,-0.75c-0.039993,-0.207001 -0.072998,-0.038002 -0.072998,0.375m0.130997,1.347c0.006012,0.313004 0.076004,0.869003 0.156998,1.236c0.112015,0.512001 0.125,0.397003 0.053009,-0.5c-0.100006,-1.241997 -0.225998,-1.683998 -0.210007,-0.736m67.32901,-0.222c0.002991,0.068001 0.209,0.268997 0.459,0.445l0.453003,0.32l-0.404007,-0.445c-0.425003,-0.468002 -0.516006,-0.526001 -0.507996,-0.32m1.033997,2.708c0,0.320999 0.033997,0.452003 0.076004,0.292c0.041992,-0.161003 0.041992,-0.422997 0,-0.584c-0.042007,-0.160004 -0.076004,-0.028999 -0.076004,0.292m-68,0.5c0,0.320999 0.033997,0.452003 0.076004,0.292c0.041992,-0.161003 0.041992,-0.422997 0,-0.584c-0.042007,-0.160004 -0.076004,-0.028999 -0.076004,0.292m67.738998,0.278c-0.153,0.153 -0.141006,2.516998 0.014008,2.612999c0.067993,0.042 0.125,-0.553001 0.125,-1.323997c0,-0.770004 -0.007004,-1.400002 -0.014008,-1.400002c-0.007996,0 -0.063995,0.050003 -0.125,0.111m-67.565994,1.055c0,0.413002 0.03299,0.582001 0.071991,0.375c0.040009,-0.206001 0.040009,-0.542999 0,-0.75c-0.039001,-0.206001 -0.071991,-0.037003 -0.071991,0.375m0.166992,1.5c0,0.413002 0.031998,0.582001 0.072006,0.375c0.039993,-0.206001 0.039993,-0.542999 0,-0.75c-0.040009,-0.206001 -0.072006,-0.037003 -0.072006,0.375m0.160004,1.5c0,0.320999 0.033997,0.452003 0.076004,0.292c0.041992,-0.160004 0.041992,-0.422997 0,-0.583c-0.042007,-0.161003 -0.076004,-0.028999 -0.076004,0.291m0.175003,1.417c0.001999,0.458 0.033997,0.625999 0.071991,0.373001c0.039001,-0.253998 0.03801,-0.628998 -0.001999,-0.834c-0.039993,-0.205002 -0.070999,0.002998 -0.069992,0.460999m67.423996,0.383003c0.031006,0.613998 0.106003,1.169998 0.166992,1.233994c0.061005,0.065002 0.087006,-0.384995 0.057007,-1c-0.031006,-0.613998 -0.106003,-1.169998 -0.166992,-1.233994c-0.061005,-0.065002 -0.087006,0.384995 -0.057007,1m-67.263,1.116997c0.001999,0.366997 0.035995,0.497002 0.076004,0.290001c0.039993,-0.208 0.039001,-0.508003 -0.003006,-0.667c-0.041992,-0.159004 -0.074005,0.010002 -0.072998,0.376999m0.169998,1.583c0,0.413002 0.033005,0.582001 0.072998,0.375c0.039001,-0.206001 0.039001,-0.542999 0,-0.75c-0.039993,-0.206001 -0.072998,-0.037003 -0.072998,0.375m67.621002,1.744003c0.048996,0.586998 0.130997,1.107994 0.181,1.157997c0.130997,0.130997 -0.028,-1.960999 -0.160004,-2.105003c-0.060989,-0.065994 -0.069992,0.360001 -0.020996,0.947006m-67.468994,-0.494003c-0.006012,0.275002 0.050995,0.800003 0.126999,1.167c0.181,0.876999 0.196991,0.088997 0.01799,-0.917c-0.099991,-0.561996 -0.136002,-0.625 -0.144989,-0.25m0.341995,2.917c0,0.320999 0.033997,0.452003 0.076004,0.292c0.041992,-0.161003 0.041992,-0.422997 0,-0.584c-0.042007,-0.160004 -0.076004,-0.028999 -0.076004,0.292m67.597,1.792c0.037994,0.619003 0.119003,1.217003 0.179993,1.331001c0.061005,0.112999 0.083008,-0.336998 0.047012,-1c-0.035004,-0.664001 -0.116013,-1.262001 -0.179001,-1.331001c-0.064011,-0.068001 -0.085999,0.382004 -0.048004,1m-67.460007,-0.361c0.006012,0.359001 0.075012,0.952003 0.154999,1.319c0.10701,0.494003 0.121002,0.343002 0.052002,-0.583c-0.100998,-1.356003 -0.222,-1.788002 -0.207001,-0.736m0.335999,3c0.007004,0.359001 0.077011,0.989998 0.155014,1.402c0.106995,0.564003 0.119995,0.418999 0.050995,-0.583c-0.097,-1.407997 -0.227005,-1.924004 -0.206009,-0.819m67.62001,1.775002c0.039001,0.573997 0.119003,1.096992 0.177994,1.161003c0.059006,0.065002 0.082001,-0.348007 0.050995,-0.916008c-0.030991,-0.568993 -0.110992,-1.091995 -0.177994,-1.161995c-0.065994,-0.07 -0.089996,0.343002 -0.050995,0.917m-67.089996,2.711006c0.001999,0.365997 0.035995,0.496994 0.075989,0.288986c0.040009,-0.207001 0.03801,-0.506989 -0.002991,-0.666c-0.042007,-0.159988 -0.075012,0.01001 -0.072998,0.377014m67.595993,1.715988c0.031006,0.613998 0.106003,1.169998 0.166992,1.234009c0.061005,0.065002 0.087006,-0.38501 0.057007,-1c-0.031006,-0.613998 -0.106003,-1.169998 -0.166992,-1.234009c-0.061005,-0.065002 -0.087006,0.38501 -0.057007,1m-67.440994,-0.550003c-0.006012,0.275009 0.050995,0.800003 0.126999,1.167007c0.181,0.876999 0.196991,0.089005 0.01799,-0.917007c-0.099991,-0.561996 -0.136002,-0.625 -0.144989,-0.25m0.330994,3.252014c-0.022003,0.589996 0.044006,0.79599 0.304993,0.959991c0.26001,0.162003 0.334015,0.388 0.334015,1.029999c0,0.451996 0.056,0.85701 0.125,0.899002c0.272995,0.169998 0.000992,-1.649994 -0.296005,-1.973999c-0.167999,-0.182999 -0.335999,-0.632996 -0.373001,-1l-0.067001,-0.667007l-0.028,0.752014m67.612,1.630997c0.031006,0.522995 0.106003,1.002991 0.166,1.067993c0.061005,0.064011 0.085007,-0.310989 0.054001,-0.832993c-0.031006,-0.52301 -0.106003,-1.003998 -0.166,-1.068008c-0.061005,-0.065002 -0.085007,0.309998 -0.054001,0.833008m-1.432007,1.654999c0.344009,0.035995 0.907013,0.035995 1.25,0c0.344009,-0.035995 0.063004,-0.065002 -0.625,-0.065002c-0.686996,0 -0.967987,0.029007 -0.625,0.065002m-2.520996,0.270996c-0.128998,0.156006 -0.440002,0.201004 -1.000992,0.147995c-0.447006,-0.042999 -0.929001,-0.013992 -1.070999,0.06601c-0.165009,0.091995 0.133987,0.138 0.822998,0.127991c0.76799,-0.011993 1.162994,-0.095993 1.358002,-0.291992c0.151001,-0.151001 0.230988,-0.274994 0.177002,-0.274994c-0.054001,0 -0.183014,0.100998 -0.286011,0.224991m-6.653,0.75c-0.119995,0.076004 0.212006,0.106003 0.75,0.068008c1.317001,-0.094009 1.490005,-0.181 0.383011,-0.194c-0.505005,-0.006012 -1.014008,0.050995 -1.133011,0.125992m-56.255997,0.136002c-0.139999,0.139999 -0.110001,1.641006 0.044998,2.304993c0.072998,0.309006 0.113007,-0.057999 0.106003,-0.956985c-0.007004,-0.80101 -0.018997,-1.457001 -0.026001,-1.458008c-0.007996,-0.000992 -0.063995,0.048996 -0.125,0.110001m53.139008,0.179993c-0.642014,0.032013 -1.220001,0.111008 -1.284012,0.175003c-0.063995,0.065002 0.473007,0.07901 1.195007,0.034012c0.720993,-0.046005 1.367996,-0.140015 1.436005,-0.209015c0.068985,-0.067993 0.056,-0.109985 -0.028015,-0.091995c-0.084,0.018005 -0.677994,0.059006 -1.318985,0.091995m-5.383011,0.684006c-0.119995,0.076004 0.212006,0.106003 0.75,0.068008c1.317001,-0.094009 1.490005,-0.181 0.383011,-0.194c-0.505005,-0.006012 -1.014008,0.050995 -1.133011,0.125992m-4.5,0.5c-0.119995,0.076004 0.212006,0.106003 0.75,0.068008c1.317001,-0.094009 1.490005,-0.181 0.383011,-0.194c-0.505005,-0.006012 -1.014008,0.050995 -1.133011,0.125992m-3.116989,0.315994c-0.642014,0.032013 -1.220001,0.111008 -1.284012,0.175003c-0.063995,0.065002 0.473007,0.07901 1.195007,0.034012c0.720993,-0.046005 1.367996,-0.140015 1.436005,-0.209015c0.068985,-0.067993 0.056,-0.109985 -0.028015,-0.091995c-0.084,0.018005 -0.677994,0.059006 -1.318985,0.091995m-5.383011,0.684006c-0.119995,0.076004 0.212006,0.106003 0.75,0.068008c1.317001,-0.094009 1.490005,-0.181 0.383011,-0.194c-0.505005,-0.006012 -1.014008,0.050995 -1.133011,0.125992m-4.5,0.5c-0.119995,0.076004 0.212006,0.106003 0.75,0.068008c1.317001,-0.094009 1.490005,-0.181 0.383011,-0.194c-0.505005,-0.006012 -1.014008,0.050995 -1.133011,0.125992m-3.116989,0.315994c-0.642014,0.032013 -1.220001,0.111008 -1.284012,0.175003c-0.063995,0.065002 0.473007,0.07901 1.195007,0.034012c0.720993,-0.046005 1.367996,-0.140015 1.436005,-0.209015c0.068985,-0.067993 0.056,-0.109985 -0.028015,-0.091995c-0.084,0.018005 -0.677994,0.059006 -1.318985,0.091995m-26.878006,0.875c0,0.321014 0.033997,0.452011 0.076004,0.292007c0.041992,-0.160004 0.041992,-0.423004 0,-0.582993c-0.042007,-0.161011 -0.076004,-0.030014 -0.076004,0.290985m16.378006,-0.210999c-0.367004,0.037003 -0.730011,0.128006 -0.806015,0.20401c-0.188995,0.18399 1.430008,0.005997 1.631012,-0.180008c0.099991,-0.091995 0.099991,-0.136002 0,-0.117996c-0.087006,0.014999 -0.459,0.057999 -0.824997,0.093994m5.116989,0.020004c-0.119995,0.076004 0.212006,0.106003 0.75,0.068008c1.317001,-0.094009 1.490005,-0.181 0.383011,-0.194c-0.505005,-0.006012 -1.014008,0.050995 -1.133011,0.125992m-6.366989,0.690994c-0.138,0.089005 -0.752014,0.16301 -1.365005,0.164001c-0.613998,0.001999 -1.151001,0.059006 -1.193008,0.128006c-0.131989,0.212997 2.529007,-0.029007 2.75,-0.25c0.247009,-0.246994 0.156006,-0.266998 -0.191986,-0.042007m-14.99501,0.255005c0.020004,0.604004 0.438995,0.744995 2.212006,0.744995c0.968994,0 1.798004,-0.056 1.841003,-0.125c0.041992,-0.067993 -0.73201,-0.099991 -1.721008,-0.068985c-1.720001,0.053986 -1.809998,0.038986 -2.067993,-0.32901c-0.14801,-0.210999 -0.266998,-0.311005 -0.264008,-0.222m8.362,0.554001c-0.119995,0.076004 0.212006,0.106003 0.75,0.068008c1.317001,-0.094009 1.490005,-0.181 0.383011,-0.194c-0.505005,-0.006012 -1.014008,0.050995 -1.133011,0.125992" id="path3"/>
   <path fill-rule="evenodd" fill="#d6ded2" d="m226.082993,77.002998c-0.549988,0.066002 -2.049988,0.239998 -3.332993,0.387001c-1.283005,0.148003 -3.307999,0.386002 -4.5,0.529999c-2.203003,0.266998 -4.475998,0.526001 -8.667007,0.988998c-1.28299,0.142006 -3.097992,0.361 -4.03299,0.486c-0.936005,0.126007 -1.891998,0.192001 -2.126007,0.147003c-0.233994,-0.044998 -0.518997,-0.003998 -0.632996,0.090004c-0.113998,0.093994 -0.740005,0.203995 -1.391006,0.244995c-0.651001,0.040001 -1.274994,0.128998 -1.385986,0.197998c-0.111008,0.068001 -0.457001,0.077003 -0.767014,0.019005c-0.310989,-0.058998 -0.699997,-0.033005 -0.863998,0.056999c-0.164993,0.090996 -1.162003,0.245003 -2.215988,0.344002c-1.055008,0.098 -2.854004,0.292999 -4,0.432999c-1.962006,0.238998 -2.955002,0.352997 -8.5,0.976997c-1.238007,0.139 -3.225006,0.371002 -4.417007,0.514999c-1.192001,0.144005 -3.104004,0.368004 -4.25,0.497002c-1.145996,0.128998 -3.095993,0.348 -4.332993,0.487999c-4.018005,0.452003 -6.403,0.737999 -7.112015,0.854004c-0.784988,0.126999 -0.747986,-0.118004 -0.376999,2.490997c0.091003,0.641998 0.237,1.878998 0.324005,2.75c0.147995,1.475998 0.25,2.392998 0.917999,8.208c0.139999,1.214996 0.363007,3.183998 0.494995,4.375c0.133011,1.192001 0.35701,3.141998 0.497009,4.334c0.140991,1.191002 0.365997,3.140999 0.5,4.333c0.134995,1.192001 0.360001,3.141998 0.5,4.333c0.139999,1.192001 0.365997,3.18 0.501999,4.417c0.136002,1.237 0.360992,3.224998 0.5,4.417c0.139999,1.191002 0.362991,3.140999 0.498001,4.333c0.543991,4.835999 0.770004,6.722 0.940002,7.832993c0.097,0.642014 0.203995,1.57901 0.237991,2.084015c0.033005,0.503998 0.173004,1.959 0.309998,3.233994c0.137009,1.274002 0.235001,2.399002 0.216003,2.5c-0.043991,0.244995 6.459,0.175003 7.742004,-0.083008c0.518005,-0.103989 1.242004,-0.160995 1.610992,-0.125992c0.368011,0.035004 0.634003,0.007004 0.590012,-0.063995c-0.042999,-0.070007 0.337997,-0.137009 0.847992,-0.149002c0.509003,-0.011002 0.983002,-0.036011 1.050995,-0.054001c1.309006,-0.354004 2.743011,-0.421005 2.529007,-0.119003c-0.106995,0.153 0.001007,0.067993 0.240005,-0.188004c0.431,-0.459991 0.466995,-0.466995 3.312988,-0.621994c1.582001,-0.087006 3.439011,-0.227997 4.127014,-0.313995c0.686996,-0.086014 1.661987,-0.196014 2.165985,-0.246002c0.505005,-0.049011 1.929001,-0.21701 3.167007,-0.373001c1.237,-0.156006 2.681,-0.290009 3.207993,-0.298004c0.527008,-0.007996 0.959015,-0.065002 0.959015,-0.125c0,-0.061005 0.431,-0.145996 0.957993,-0.190002c0.903,-0.076004 2.195007,-0.222992 7.792007,-0.888992c1.28299,-0.153 2.756989,-0.286011 3.274994,-0.294998c0.518997,-0.009003 0.912003,-0.06601 0.873993,-0.126999c-0.036987,-0.061005 0.401001,-0.146011 0.975006,-0.189011c0.975006,-0.07399 1.903,-0.179001 7.876007,-0.888992c1.28299,-0.153 2.756989,-0.286011 3.274994,-0.294998c0.518997,-0.009003 0.914001,-0.062012 0.878998,-0.119003c-0.035004,-0.056 0.440994,-0.149002 1.057999,-0.206009c0.615997,-0.056 1.514999,-0.151001 1.996002,-0.209991l0.875,-0.10701l0,-0.876999c0,-1.063995 -0.067993,-1.100998 -1.688004,-0.909988c-0.675995,0.080002 -2.278992,0.264999 -3.561996,0.410995c-1.283005,0.145996 -3.233002,0.371994 -4.332993,0.5c-1.100006,0.128998 -3.050003,0.354996 -4.334015,0.501999c-1.28299,0.147003 -3.232986,0.371002 -4.332993,0.498001c-1.100006,0.128006 -3.050003,0.352997 -4.332993,0.5c-1.284012,0.147995 -3.234009,0.375 -4.334015,0.503998c-1.099991,0.128006 -3.049988,0.352997 -4.332993,0.5c-1.283005,0.145996 -3.233002,0.369995 -4.332993,0.498001c-1.100006,0.128006 -3.050003,0.352997 -4.334015,0.501007c-1.28299,0.147995 -3.195999,0.372986 -4.25,0.500992c-5.399994,0.654999 -5.070999,0.854004 -5.488998,-3.334991c-0.194,-1.953003 -0.375992,-3.588013 -0.925995,-8.334015c-0.432999,-3.742996 -0.746002,-6.550995 -0.917999,-8.249992c-0.087997,-0.871002 -0.203995,-1.807999 -0.257004,-2.083c-0.052994,-0.275002 -0.209991,-1.550003 -0.348999,-2.833c-0.32399,-2.985001 -0.744995,-6.682999 -1.477997,-13c-0.852005,-7.342003 -1.098007,-6.721001 2.834,-7.155998c1.375,-0.153 3.399994,-0.382004 4.5,-0.510002c1.100006,-0.128998 3.050003,-0.353996 4.332993,-0.500999c4.128006,-0.473 5.644012,-0.648003 13,-1.500999c1.100006,-0.126999 3.050003,-0.350998 4.334015,-0.497002c2.288986,-0.261002 4.427994,-0.507996 8.582993,-0.993996c1.145996,-0.133003 3.171005,-0.364006 4.5,-0.513c1.328995,-0.148003 3.218002,-0.377007 4.197006,-0.507004c4.362,-0.582001 4.078995,-0.833 4.620987,4.095001c0.105011,0.962997 0.267014,2.237999 0.359009,2.834c0.093002,0.596001 0.240997,1.833 0.330994,2.75c0.090012,0.916 0.275009,2.640999 0.41301,3.833c0.136993,1.192001 0.360001,3.141998 0.496002,4.333c0.134995,1.192001 0.355988,3.105003 0.48999,4.25c0.492996,4.206001 0.848007,7.296997 1.51001,13.167c0.128998,1.146004 0.353989,3.095993 0.498993,4.332993c0.145996,1.238007 0.367996,3.225006 0.494003,4.417007c0.274994,2.595993 0.343994,2.819 0.820999,2.658005c0.194,-0.06601 0.72699,-0.153 1.186005,-0.193008l0.832993,-0.07399l-0.136993,-1.862c-0.076004,-1.024002 -0.199005,-1.979004 -0.27301,-2.122009c-0.074997,-0.14299 -0.190994,-1.212997 -0.257996,-2.377991c-0.067001,-1.164001 -0.181,-2.154007 -0.251999,-2.198013c-0.070999,-0.043991 -0.184006,-1.018997 -0.25,-2.165993c-0.065994,-1.148003 -0.178009,-2.123001 -0.248001,-2.166c-0.070007,-0.042999 -0.182007,-1.055 -0.249008,-2.249001c-0.065994,-1.194 -0.179993,-2.207001 -0.251999,-2.250999c-0.071991,-0.044998 -0.184998,-0.962997 -0.250992,-2.040001c-0.065002,-1.078003 -0.177002,-2.033997 -0.249008,-2.125999c-0.070999,-0.091003 -0.18399,-1.124001 -0.250992,-2.293999c-0.065994,-1.169998 -0.190002,-2.171005 -0.275009,-2.223c-0.084991,-0.053001 -0.149994,-0.783005 -0.144989,-1.622002c0.011993,-1.910004 -0.225006,-4.076004 -0.472,-4.322998c-0.10701,-0.107002 -0.188004,-0.744003 -0.188004,-1.478004c0,-0.709 -0.067993,-1.332001 -0.149994,-1.382996c-0.083008,-0.051003 -0.20401,-0.973999 -0.270004,-2.051003c-0.065002,-1.078003 -0.177002,-2.033997 -0.249008,-2.125999c-0.070999,-0.091003 -0.18399,-1.124001 -0.250992,-2.293999c-0.065994,-1.169998 -0.179001,-2.164001 -0.25,-2.208c-0.070999,-0.043999 -0.184006,-1.019005 -0.25,-2.166c-0.065994,-1.148003 -0.178009,-2.123001 -0.248001,-2.166c-0.070007,-0.042999 -0.182007,-1.055 -0.249008,-2.249001c-0.065994,-1.194 -0.179993,-2.207001 -0.253998,-2.252998c-0.072998,-0.044998 -0.186996,-0.983002 -0.252991,-2.084999c-0.065002,-1.101006 -0.184998,-2.042999 -0.264008,-2.092003c-0.080002,-0.048996 -0.145996,-0.403999 -0.147003,-0.788002c0,-0.383995 -0.048996,-1.204994 -0.106995,-1.823997l-0.106003,-1.125l-0.93399,0.026001c-0.514008,0.014 -1.38501,0.079002 -1.935013,0.143997m-2,15.836998c-0.457993,0.074005 -1.957993,0.256004 -3.332993,0.404007c-1.375,0.147995 -3.399994,0.375999 -4.5,0.505997c-3.962997,0.470001 -6.373001,0.75 -8.582993,0.998001c-1.238007,0.139 -3.188004,0.362 -4.334015,0.494995c-3.291992,0.384003 -6.231995,0.723007 -8.665985,1.002007c-5.073013,0.579994 -6.843002,0.784996 -8.667007,1.003998c-1.054001,0.126999 -3.067993,0.363998 -4.475998,0.527l-2.559006,0.295998l0.10701,0.756004c0.05899,0.414993 0.213989,1.693001 0.343994,2.838997c0.660995,5.832001 0.785004,6.915001 1.013992,8.916c0.137009,1.192001 0.353012,3.067001 0.480011,4.167c0.126999,1.099998 0.343994,3.050003 0.483994,4.333c0.139008,1.283997 0.296005,2.558998 0.348999,2.834c0.053009,0.275002 0.169998,1.211998 0.259003,2.083c0.171997,1.683998 0.485001,4.490997 0.910004,8.167007c0.14299,1.237 0.362,3.246994 0.487,4.465988c0.268005,2.612 0.155991,2.430008 1.375,2.220001c0.537003,-0.093002 1.500992,-0.214996 2.143005,-0.270996c0.640991,-0.057007 1.990997,-0.205994 3,-0.332001c1.007996,-0.126007 2.92099,-0.350006 4.25,-0.498001c1.328995,-0.149002 2.940994,-0.337997 3.582993,-0.421997c0.641998,-0.083008 1.617004,-0.194 2.167007,-0.247009c0.549988,-0.052994 1.862,-0.199997 2.915985,-0.327988c1.054001,-0.128006 3.005005,-0.354004 4.334015,-0.503006c1.328995,-0.149002 2.940994,-0.337997 3.582993,-0.421997c0.641998,-0.083008 1.617004,-0.195007 2.167007,-0.249008c0.549988,-0.054001 1.936996,-0.207001 3.082993,-0.340988c1.145996,-0.13501 3.057999,-0.358002 4.25,-0.496002c1.192001,-0.138 2.729004,-0.322998 3.417007,-0.410004c0.686996,-0.087997 2.036987,-0.238998 3,-0.335007c2.435989,-0.244995 3.645996,-0.422989 3.781998,-0.55899c0.132996,-0.132996 -0.14801,-3.035004 -1.019012,-10.523003c-0.269989,-2.328003 -0.649994,-5.620003 -1.019989,-8.834c-0.126007,-1.099998 -0.306,-2.75 -0.401001,-3.666c-0.094009,-0.917 -0.216003,-1.929001 -0.272003,-2.249001c-0.054993,-0.320999 -0.210007,-1.596001 -0.343994,-2.834c-0.133011,-1.237999 -0.350998,-3.187996 -0.483002,-4.334c-0.132004,-1.146004 -0.362,-3.133003 -0.51001,-4.417c-0.147995,-1.282997 -0.306,-2.689003 -0.350998,-3.125c-0.091003,-0.889999 -0.153,-0.908997 -1.966003,-0.618004m-8.790985,14.108002c-0.161011,0.042 -0.423004,0.042 -0.584015,0c-0.159988,-0.042 -0.028992,-0.075996 0.292007,-0.075996c0.320999,0 0.451996,0.033997 0.292007,0.075996" id="path4"/>
  </g>
  <ellipse ry="2.039" rx="2.0104" id="svg_1" cy="86.554699" cx="202.75392" stroke-width="2" stroke="#bf0000" fill="#ffffff"/>
 </g>
</svg>